<?xml version="1.0" encoding="UTF-8" standalone="no"?>
<!-- Created with Inkscape (http://www.inkscape.org/) -->

<svg
   width="60.0px"
   height="60.0px"
   viewBox="0 0 60.0 60.0"
   version="1.1"
   id="SVGRoot"
   sodipodi:docname="bg-frame-opacity.svg"
   inkscape:version="1.1 (c68e22c387, 2021-05-23)"
   xmlns:inkscape="http://www.inkscape.org/namespaces/inkscape"
   xmlns:sodipodi="http://sodipodi.sourceforge.net/DTD/sodipodi-0.dtd"
   xmlns="http://www.w3.org/2000/svg"
   xmlns:svg="http://www.w3.org/2000/svg">
  <sodipodi:namedview
     id="namedview1386"
     pagecolor="#ffffff"
     bordercolor="#666666"
     borderopacity="1.0"
     inkscape:pageshadow="2"
     inkscape:pageopacity="0.0"
     inkscape:pagecheckerboard="0"
     inkscape:document-units="px"
     showgrid="true"
     inkscape:zoom="11.859035"
     inkscape:cx="29.302553"
     inkscape:cy="31.157679"
     inkscape:window-width="1920"
     inkscape:window-height="1017"
     inkscape:window-x="-8"
     inkscape:window-y="1072"
     inkscape:window-maximized="1"
     inkscape:current-layer="layer1">
    <inkscape:grid
       type="xygrid"
       id="grid1392" />
  </sodipodi:namedview>
  <defs
     id="defs1381">
    <inkscape:path-effect
       effect="spiro"
       id="path-effect1439"
       is_visible="true"
       lpeversion="1" />
    <inkscape:path-effect
       effect="spiro"
       id="path-effect1402"
       is_visible="true"
       lpeversion="1" />
    <inkscape:path-effect
       effect="spiro"
       id="path-effect1234"
       is_visible="true"
       lpeversion="1" />
    <inkscape:path-effect
       effect="spiro"
       id="path-effect1197"
       is_visible="true"
       lpeversion="1" />
    <inkscape:path-effect
       effect="spiro"
       id="path-effect1160"
       is_visible="true"
       lpeversion="1" />
    <inkscape:path-effect
       effect="spiro"
       id="path-effect826"
       is_visible="true"
       lpeversion="1" />
    <inkscape:path-effect
       effect="spiro"
       id="path-effect206"
       is_visible="true"
       lpeversion="1" />
    <inkscape:path-effect
       effect="spiro"
       id="path-effect2703"
       is_visible="true"
       lpeversion="1" />
    <inkscape:path-effect
       effect="spiro"
       id="path-effect2699"
       is_visible="true"
       lpeversion="1" />
    <inkscape:path-effect
       effect="spiro"
       id="path-effect2695"
       is_visible="true"
       lpeversion="1" />
    <inkscape:path-effect
       effect="spiro"
       id="path-effect2691"
       is_visible="true"
       lpeversion="1" />
    <inkscape:path-effect
       effect="spiro"
       id="path-effect2687"
       is_visible="true"
       lpeversion="1" />
    <inkscape:path-effect
       effect="spiro"
       id="path-effect2683"
       is_visible="true"
       lpeversion="1" />
    <inkscape:path-effect
       effect="spiro"
       id="path-effect2679"
       is_visible="true"
       lpeversion="1" />
    <inkscape:path-effect
       effect="spiro"
       id="path-effect1536"
       is_visible="true"
       lpeversion="1" />
    <inkscape:path-effect
       effect="spiro"
       id="path-effect1532"
       is_visible="true"
       lpeversion="1" />
    <inkscape:path-effect
       effect="spiro"
       id="path-effect1528"
       is_visible="true"
       lpeversion="1" />
    <inkscape:path-effect
       effect="spiro"
       id="path-effect1524"
       is_visible="true"
       lpeversion="1" />
    <inkscape:path-effect
       effect="spiro"
       id="path-effect1516"
       is_visible="true"
       lpeversion="1" />
    <inkscape:path-effect
       effect="spiro"
       id="path-effect1512"
       is_visible="true"
       lpeversion="1" />
    <inkscape:path-effect
       effect="spiro"
       id="path-effect1496"
       is_visible="true"
       lpeversion="1" />
    <inkscape:path-effect
       effect="spiro"
       id="path-effect1492"
       is_visible="true"
       lpeversion="1" />
    <inkscape:path-effect
       effect="spiro"
       id="path-effect1488"
       is_visible="true"
       lpeversion="1" />
    <inkscape:path-effect
       effect="spiro"
       id="path-effect1484"
       is_visible="true"
       lpeversion="1" />
    <inkscape:path-effect
       effect="spiro"
       id="path-effect1480"
       is_visible="true"
       lpeversion="1" />
    <inkscape:path-effect
       effect="spiro"
       id="path-effect1476"
       is_visible="true"
       lpeversion="1" />
    <inkscape:path-effect
       effect="spiro"
       id="path-effect1472"
       is_visible="true"
       lpeversion="1" />
    <inkscape:path-effect
       effect="spiro"
       id="path-effect1468"
       is_visible="true"
       lpeversion="1" />
    <inkscape:path-effect
       effect="spiro"
       id="path-effect1464"
       is_visible="true"
       lpeversion="1" />
    <inkscape:path-effect
       effect="spiro"
       id="path-effect1460"
       is_visible="true"
       lpeversion="1" />
    <inkscape:path-effect
       effect="spiro"
       id="path-effect1456"
       is_visible="true"
       lpeversion="1" />
    <inkscape:path-effect
       effect="spiro"
       id="path-effect1452"
       is_visible="true"
       lpeversion="1" />
  </defs>
  <g
     inkscape:label="Layer 1"
     inkscape:groupmode="layer"
     id="layer1">
    <path
       style="fill:none;stroke:#000000;stroke-width:1px;stroke-linecap:butt;stroke-linejoin:miter;stroke-opacity:1"
       d="M 5,50 V 5"
       id="path1454"
       inkscape:path-effect="#path-effect1456"
       inkscape:original-d="M 5,50 C 5.001,35.001 5.001,20.001 5,5" />
    <path
       style="fill:none;stroke:#000000;stroke-width:1px;stroke-linecap:butt;stroke-linejoin:miter;stroke-opacity:1"
       d="M 15,5 H 5"
       id="path1458"
       inkscape:path-effect="#path-effect1460"
       inkscape:original-d="M 15,5 C 11.667667,5.001 8.3343333,5.001 5,5" />
    <path
       style="fill:none;stroke:#000000;stroke-width:1px;stroke-linecap:butt;stroke-linejoin:miter;stroke-opacity:1"
       d="M 55,5 H 45"
       id="path1462"
       inkscape:path-effect="#path-effect1464"
       inkscape:original-d="M 55,5 C 51.667667,5.001 48.334333,5.001 45,5" />
    <path
       style="fill:none;stroke:#000000;stroke-width:1px;stroke-linecap:butt;stroke-linejoin:miter;stroke-opacity:1"
       d="M 10,25 V 40"
       id="path1486"
       inkscape:path-effect="#path-effect1488"
       inkscape:original-d="m 10,25 c 10e-4,5.001 10e-4,10.001 0,15" />
    <path
       style="fill:none;stroke:#000000;stroke-width:1px;stroke-linecap:butt;stroke-linejoin:miter;stroke-opacity:1"
       d="M 50,40 H 10"
       id="path1490"
       inkscape:path-effect="#path-effect1492"
       inkscape:original-d="M 50,40 C 36.667667,40.001 23.334333,40.001 10,40" />
    <path
       style="fill:none;stroke:#999999;stroke-width:1px;stroke-linecap:butt;stroke-linejoin:miter;stroke-opacity:1"
       d="M 50,25 V 40"
       id="path1494"
       inkscape:path-effect="#path-effect1496"
       inkscape:original-d="m 50,25 c 10e-4,5.001 10e-4,10.001 0,15" />
    <path
       style="fill:none;stroke:#000000;stroke-width:1px;stroke-linecap:butt;stroke-linejoin:miter;stroke-opacity:1"
       d="m 10,35 c 13.065565,-3.276504 26.529928,-4.959549 40,-5 0.333332,-0.001 0.666668,-0.001 1,0"
       id="path1510"
       inkscape:path-effect="#path-effect1512"
       inkscape:original-d="m 10,35 c 13.334333,-1.665667 26.667667,-3.332333 40,-5 13.332333,-1.667667 0.667667,0.001 1,0" />
    <path
       style="fill:none;stroke:#000000;stroke-width:1px;stroke-linecap:butt;stroke-linejoin:miter;stroke-opacity:1"
       d="m 18,33 c -0.883573,-0.687223 -1.557347,-1.64059 -1.91021,-2.702883 -0.352863,-1.062292 -0.383423,-2.229316 -0.08664,-3.30862 0.296783,-1.079304 0.919737,-2.066627 1.766132,-2.799152 0.846395,-0.732525 1.91289,-1.207359 3.023611,-1.346199 1.110721,-0.13884 2.261283,0.05886 3.261949,0.560504 1.000666,0.501642 1.847486,1.305244 2.400812,2.278284 0.553326,0.97304 0.810974,2.111679 0.730455,3.228144 C 27.105591,30.026542 26.687223,31.116427 26,32 c -0.290162,0.373065 -0.626935,0.709838 -1,1"
       id="path1514"
       inkscape:path-effect="#path-effect1516"
       inkscape:original-d="m 18,33 c 2.667667,-0.332333 5.334333,-0.665667 8,-1 2.665667,-0.334333 -0.665667,0.667667 -1,1" />
    <path
       style="fill:none;stroke:#000000;stroke-width:1px;stroke-linecap:butt;stroke-linejoin:miter;stroke-opacity:1"
       d="M 58,3 3,52"
       id="path204"
       inkscape:path-effect="#path-effect206"
       inkscape:original-d="M 58,3 C 39.667667,19.334333 21.334333,35.667667 3,52" />
    <path
       style="opacity:0;fill:#999999;stroke-width:0.0843239"
       d="M 3.0150662,51.94722 2.7415006,51.62896 3.6295472,50.837595 4.5175937,50.046231 4.5141525,27.552832 4.5107111,5.0594336 h 0.2532803 c 0.2252065,0 0.2532802,-0.02804 0.2532802,-0.2529717 V 4.5534902 h 4.9751097 4.9751097 v 0.4637814 0.4637815 h -4.7643 -4.7642999 V 27.331226 c 0,21.615961 0.00176,21.848934 0.163753,21.734484 0.090064,-0.06363 2.2910922,-2.012978 4.8911739,-4.331885 l 4.72742,-4.216194 -2.572266,-0.0223 -2.572267,-0.0223 v -0.251753 c 0,-0.22351 -0.02838,-0.251754 -0.2529715,-0.251754 H 9.5707619 V 32.50686 25.044195 h 0.4637811 0.463782 v 4.685659 c 0,4.422417 0.0083,4.683284 0.147567,4.643393 0.359543,-0.102979 3.891432,-0.908397 5.038352,-1.148954 0.695672,-0.145913 1.312906,-0.280694 1.371631,-0.299514 0.06769,-0.02169 -0.05023,-0.227916 -0.32213,-0.563364 -0.527999,-0.651405 -1.039669,-1.68439 -1.222773,-2.468596 -0.286538,-1.227192 -0.138182,-2.740585 0.380872,-3.885334 1.79817,-3.965779 6.920906,-4.897698 9.953429,-1.810712 0.730355,0.743471 1.108202,1.341096 1.459948,2.309136 0.212397,0.584536 0.257956,0.857821 0.301603,1.809158 L 27.658237,29.43568 41.078412,17.479448 54.498586,5.523215 49.784853,5.5014319 45.071121,5.4796489 V 5.0165696 4.5534902 h 4.927605 4.927605 l 0.02642,0.2715076 0.02642,0.2715076 1.347064,-1.2016058 1.347065,-1.2016057 0.273005,0.3187499 c 0.150152,0.1753125 0.27381,0.3377229 0.274796,0.3609119 9.87e-4,0.023189 -0.623076,0.5923754 -1.386804,1.2648584 L 55.4457,5.8605106 55.4443,27.890128 55.4429,49.919745 h -0.252972 c -0.224864,0 -0.252972,0.02811 -0.252972,0.252971 v 0.252972 h -4.932947 -4.932948 v -0.421619 -0.42162 h 4.722138 4.722138 V 28.149482 6.7165138 L 54.325668,6.886965 c -0.104351,0.093748 -6.273202,5.587182 -13.708557,12.207631 -7.435355,6.620449 -13.506676,12.049208 -13.491823,12.063909 0.01485,0.0147 0.558246,-0.04484 1.20754,-0.132316 5.467253,-0.736561 11.985103,-1.269475 16.949103,-1.385796 1.113075,-0.02608 2.526554,-0.06922 3.141065,-0.09586 l 1.117291,-0.04844 v -2.225944 -2.225945 h 0.463782 0.463781 v 2.234583 2.234584 h 0.252972 c 0.250416,0 0.252971,0.0047 0.252971,0.463781 0,0.459096 -0.0026,0.463781 -0.252971,0.463781 H 50.46785 v 4.7643 4.7643 h -0.252972 c -0.224864,0 -0.252971,0.02811 -0.252971,0.252972 v 0.252972 H 33.286218 16.610531 l -5.087898,4.532409 -5.0878977,4.532409 4.2663777,0.02185 4.266378,0.02185 v 0.420846 0.420847 H 10.205209 5.4429267 L 4.4239174,51.33217 C 3.8634622,51.830735 3.3787459,52.244689 3.34677,52.252066 3.314794,52.259444 3.1655273,52.122263 3.0150662,51.94722 Z M 20.191831,36.087581 c 2.135452,-1.903177 3.88264,-3.472839 3.88264,-3.488135 0,-0.0535 -3.857056,0.631691 -6.155644,1.093525 -2.464812,0.495231 -4.15918,0.866682 -6.176725,1.354106 l -1.243777,0.300486 v 2.100172 2.100171 h 2.905433 2.905432 z m 29.348456,-1.093165 v -4.553491 l -0.358376,0.001 c -0.976676,0.0028 -6.107564,0.176379 -7.441584,0.25169 -4.46875,0.252279 -8.963231,0.664919 -12.901556,1.184496 -2.541431,0.335287 -2.349251,0.276071 -2.959754,0.911973 l -0.537605,0.559972 -0.151254,-0.192755 -0.151253,-0.192755 -2.527071,2.250921 c -1.389889,1.238006 -3.050621,2.719252 -3.690514,3.291658 L 17.657877,39.54786 H 33.599082 49.540287 Z M 20.322058,32.301981 c 1.020319,-0.185934 2.57453,-0.456146 3.453802,-0.600471 1.417384,-0.232652 1.632537,-0.289367 1.897287,-0.500134 0.478956,-0.381296 0.652257,-0.607589 0.797302,-1.041104 0.904679,-2.703933 -0.551037,-5.660148 -3.255509,-6.611166 -0.815442,-0.286748 -2.047476,-0.352451 -2.892882,-0.154277 -2.052103,0.481043 -3.61602,2.142106 -3.97526,4.222195 -0.211484,1.224547 0.0077,2.454935 0.629019,3.531378 0.339287,0.587797 1.211934,1.562067 1.36463,1.523548 0.06957,-0.01755 0.961292,-0.184035 1.981611,-0.369969 z"
       id="path245" />
    <path
       style="opacity:0;fill:#999999;stroke-width:0.0843239"
       d="M 3.0150662,51.94722 2.7415006,51.62896 3.6295472,50.837595 4.5175937,50.046231 4.5141525,27.552832 4.5107111,5.0594336 h 0.2532803 c 0.2252065,0 0.2532802,-0.02804 0.2532802,-0.2529717 V 4.5534902 h 4.9751097 4.9751097 v 0.4637814 0.4637815 h -4.7643 -4.7642999 V 27.331226 c 0,21.615961 0.00176,21.848934 0.163753,21.734484 0.090064,-0.06363 2.2910922,-2.012978 4.8911739,-4.331885 l 4.72742,-4.216194 -2.572266,-0.0223 -2.572267,-0.0223 v -0.251753 c 0,-0.22351 -0.02838,-0.251754 -0.2529715,-0.251754 H 9.5707619 V 32.50686 25.044195 h 0.4637811 0.463782 v 4.685659 c 0,4.422417 0.0083,4.683284 0.147567,4.643393 0.359543,-0.102979 3.891432,-0.908397 5.038352,-1.148954 0.695672,-0.145913 1.312906,-0.280694 1.371631,-0.299514 0.06769,-0.02169 -0.05023,-0.227916 -0.32213,-0.563364 -0.527999,-0.651405 -1.039669,-1.68439 -1.222773,-2.468596 -0.286538,-1.227192 -0.138182,-2.740585 0.380872,-3.885334 1.79817,-3.965779 6.920906,-4.897698 9.953429,-1.810712 0.730355,0.743471 1.108202,1.341096 1.459948,2.309136 0.212397,0.584536 0.257956,0.857821 0.301603,1.809158 L 27.658237,29.43568 41.078412,17.479448 54.498586,5.523215 49.784853,5.5014319 45.071121,5.4796489 V 5.0165696 4.5534902 h 4.927605 4.927605 l 0.02642,0.2715076 0.02642,0.2715076 1.347064,-1.2016058 1.347065,-1.2016057 0.273005,0.3187499 c 0.150152,0.1753125 0.27381,0.3377229 0.274796,0.3609119 9.87e-4,0.023189 -0.623076,0.5923754 -1.386804,1.2648584 L 55.4457,5.8605106 55.4443,27.890128 55.4429,49.919745 h -0.252972 c -0.224864,0 -0.252972,0.02811 -0.252972,0.252971 v 0.252972 h -4.932947 -4.932948 v -0.421619 -0.42162 h 4.722138 4.722138 V 28.149482 6.7165138 L 54.325668,6.886965 c -0.104351,0.093748 -6.273202,5.587182 -13.708557,12.207631 -7.435355,6.620449 -13.506676,12.049208 -13.491823,12.063909 0.01485,0.0147 0.558246,-0.04484 1.20754,-0.132316 5.467253,-0.736561 11.985103,-1.269475 16.949103,-1.385796 1.113075,-0.02608 2.526554,-0.06922 3.141065,-0.09586 l 1.117291,-0.04844 v -2.225944 -2.225945 h 0.463782 0.463781 v 2.234583 2.234584 h 0.252972 c 0.250416,0 0.252971,0.0047 0.252971,0.463781 0,0.459096 -0.0026,0.463781 -0.252971,0.463781 H 50.46785 v 4.7643 4.7643 h -0.252972 c -0.224864,0 -0.252971,0.02811 -0.252971,0.252972 v 0.252972 H 33.286218 16.610531 l -5.087898,4.532409 -5.0878977,4.532409 4.2663777,0.02185 4.266378,0.02185 v 0.420846 0.420847 H 10.205209 5.4429267 L 4.4239174,51.33217 C 3.8634622,51.830735 3.3787459,52.244689 3.34677,52.252066 3.314794,52.259444 3.1655273,52.122263 3.0150662,51.94722 Z M 20.191831,36.087581 c 2.135452,-1.903177 3.88264,-3.472839 3.88264,-3.488135 0,-0.0535 -3.857056,0.631691 -6.155644,1.093525 -2.464812,0.495231 -4.15918,0.866682 -6.176725,1.354106 l -1.243777,0.300486 v 2.100172 2.100171 h 2.905433 2.905432 z m 29.348456,-1.093165 v -4.553491 l -0.358376,0.001 c -0.976676,0.0028 -6.107564,0.176379 -7.441584,0.25169 -4.46875,0.252279 -8.963231,0.664919 -12.901556,1.184496 -2.541431,0.335287 -2.349251,0.276071 -2.959754,0.911973 l -0.537605,0.559972 -0.151254,-0.192755 -0.151253,-0.192755 -2.527071,2.250921 c -1.389889,1.238006 -3.050621,2.719252 -3.690514,3.291658 L 17.657877,39.54786 H 33.599082 49.540287 Z M 20.322058,32.301981 c 1.020319,-0.185934 2.57453,-0.456146 3.453802,-0.600471 1.417384,-0.232652 1.632537,-0.289367 1.897287,-0.500134 0.478956,-0.381296 0.652257,-0.607589 0.797302,-1.041104 0.904679,-2.703933 -0.551037,-5.660148 -3.255509,-6.611166 -0.815442,-0.286748 -2.047476,-0.352451 -2.892882,-0.154277 -2.052103,0.481043 -3.61602,2.142106 -3.97526,4.222195 -0.211484,1.224547 0.0077,2.454935 0.629019,3.531378 0.339287,0.587797 1.211934,1.562067 1.36463,1.523548 0.06957,-0.01755 0.961292,-0.184035 1.981611,-0.369969 z"
       id="path321" />
    <path
       style="opacity:0;fill:#999999;stroke-width:0.0843239"
       d="M 3.0150662,51.94722 2.7415006,51.62896 3.6295472,50.837595 4.5175937,50.046231 4.5141525,27.552832 4.5107111,5.0594336 h 0.2532803 c 0.2252065,0 0.2532802,-0.02804 0.2532802,-0.2529717 V 4.5534902 h 4.9751097 4.9751097 v 0.4637814 0.4637815 h -4.7643 -4.7642999 V 27.331226 c 0,21.615961 0.00176,21.848934 0.163753,21.734484 0.090064,-0.06363 2.2910922,-2.012978 4.8911739,-4.331885 l 4.72742,-4.216194 -2.572266,-0.0223 -2.572267,-0.0223 v -0.251753 c 0,-0.22351 -0.02838,-0.251754 -0.2529715,-0.251754 H 9.5707619 V 32.50686 25.044195 h 0.4637811 0.463782 v 4.685659 c 0,4.422417 0.0083,4.683284 0.147567,4.643393 0.359543,-0.102979 3.891432,-0.908397 5.038352,-1.148954 0.695672,-0.145913 1.312906,-0.280694 1.371631,-0.299514 0.06769,-0.02169 -0.05023,-0.227916 -0.32213,-0.563364 -0.527999,-0.651405 -1.039669,-1.68439 -1.222773,-2.468596 -0.286538,-1.227192 -0.138182,-2.740585 0.380872,-3.885334 1.79817,-3.965779 6.920906,-4.897698 9.953429,-1.810712 0.730355,0.743471 1.108202,1.341096 1.459948,2.309136 0.212397,0.584536 0.257956,0.857821 0.301603,1.809158 L 27.658237,29.43568 41.078412,17.479448 54.498586,5.523215 49.784853,5.5014319 45.071121,5.4796489 V 5.0165696 4.5534902 h 4.927605 4.927605 l 0.02642,0.2715076 0.02642,0.2715076 1.347064,-1.2016058 1.347065,-1.2016057 0.273005,0.3187499 c 0.150152,0.1753125 0.27381,0.3377229 0.274796,0.3609119 9.87e-4,0.023189 -0.623076,0.5923754 -1.386804,1.2648584 L 55.4457,5.8605106 55.4443,27.890128 55.4429,49.919745 h -0.252972 c -0.224864,0 -0.252972,0.02811 -0.252972,0.252971 v 0.252972 h -4.932947 -4.932948 v -0.421619 -0.42162 h 4.722138 4.722138 V 28.149482 6.7165138 L 54.325668,6.886965 c -0.104351,0.093748 -6.273202,5.587182 -13.708557,12.207631 -7.435355,6.620449 -13.506676,12.049208 -13.491823,12.063909 0.01485,0.0147 0.558246,-0.04484 1.20754,-0.132316 5.467253,-0.736561 11.985103,-1.269475 16.949103,-1.385796 1.113075,-0.02608 2.526554,-0.06922 3.141065,-0.09586 l 1.117291,-0.04844 v -2.225944 -2.225945 h 0.463782 0.463781 v 2.234583 2.234584 h 0.252972 c 0.250416,0 0.252971,0.0047 0.252971,0.463781 0,0.459096 -0.0026,0.463781 -0.252971,0.463781 H 50.46785 v 4.7643 4.7643 h -0.252972 c -0.224864,0 -0.252971,0.02811 -0.252971,0.252972 v 0.252972 H 33.286218 16.610531 l -5.087898,4.532409 -5.0878977,4.532409 4.2663777,0.02185 4.266378,0.02185 v 0.420846 0.420847 H 10.205209 5.4429267 L 4.4239174,51.33217 C 3.8634622,51.830735 3.3787459,52.244689 3.34677,52.252066 3.314794,52.259444 3.1655273,52.122263 3.0150662,51.94722 Z M 20.191831,36.087581 c 2.135452,-1.903177 3.88264,-3.472839 3.88264,-3.488135 0,-0.0535 -3.857056,0.631691 -6.155644,1.093525 -2.464812,0.495231 -4.15918,0.866682 -6.176725,1.354106 l -1.243777,0.300486 v 2.100172 2.100171 h 2.905433 2.905432 z m 29.348456,-1.093165 v -4.553491 l -0.358376,0.001 c -0.976676,0.0028 -6.107564,0.176379 -7.441584,0.25169 -4.46875,0.252279 -8.963231,0.664919 -12.901556,1.184496 -2.541431,0.335287 -2.349251,0.276071 -2.959754,0.911973 l -0.537605,0.559972 -0.151254,-0.192755 -0.151253,-0.192755 -2.527071,2.250921 c -1.389889,1.238006 -3.050621,2.719252 -3.690514,3.291658 L 17.657877,39.54786 H 33.599082 49.540287 Z M 20.322058,32.301981 c 1.020319,-0.185934 2.57453,-0.456146 3.453802,-0.600471 1.417384,-0.232652 1.632537,-0.289367 1.897287,-0.500134 0.478956,-0.381296 0.652257,-0.607589 0.797302,-1.041104 0.904679,-2.703933 -0.551037,-5.660148 -3.255509,-6.611166 -0.815442,-0.286748 -2.047476,-0.352451 -2.892882,-0.154277 -2.052103,0.481043 -3.61602,2.142106 -3.97526,4.222195 -0.211484,1.224547 0.0077,2.454935 0.629019,3.531378 0.339287,0.587797 1.211934,1.562067 1.36463,1.523548 0.06957,-0.01755 0.961292,-0.184035 1.981611,-0.369969 z"
       id="path360" />
    <path
       style="opacity:0;fill:#999999;stroke-width:0.0843239"
       d="M 3.0150662,51.94722 2.7415006,51.62896 3.6295472,50.837595 4.5175937,50.046231 4.5141525,27.552832 4.5107111,5.0594336 h 0.2532803 c 0.2252065,0 0.2532802,-0.02804 0.2532802,-0.2529717 V 4.5534902 h 4.9751097 4.9751097 v 0.4637814 0.4637815 h -4.7643 -4.7642999 V 27.331226 c 0,21.615961 0.00176,21.848934 0.163753,21.734484 0.090064,-0.06363 2.2910922,-2.012978 4.8911739,-4.331885 l 4.72742,-4.216194 -2.572266,-0.0223 -2.572267,-0.0223 v -0.251753 c 0,-0.22351 -0.02838,-0.251754 -0.2529715,-0.251754 H 9.5707619 V 32.50686 25.044195 h 0.4637811 0.463782 v 4.685659 c 0,4.422417 0.0083,4.683284 0.147567,4.643393 0.359543,-0.102979 3.891432,-0.908397 5.038352,-1.148954 0.695672,-0.145913 1.312906,-0.280694 1.371631,-0.299514 0.06769,-0.02169 -0.05023,-0.227916 -0.32213,-0.563364 -0.527999,-0.651405 -1.039669,-1.68439 -1.222773,-2.468596 -0.286538,-1.227192 -0.138182,-2.740585 0.380872,-3.885334 1.79817,-3.965779 6.920906,-4.897698 9.953429,-1.810712 0.730355,0.743471 1.108202,1.341096 1.459948,2.309136 0.212397,0.584536 0.257956,0.857821 0.301603,1.809158 L 27.658237,29.43568 41.078412,17.479448 54.498586,5.523215 49.784853,5.5014319 45.071121,5.4796489 V 5.0165696 4.5534902 h 4.927605 4.927605 l 0.02642,0.2715076 0.02642,0.2715076 1.347064,-1.2016058 1.347065,-1.2016057 0.273005,0.3187499 c 0.150152,0.1753125 0.27381,0.3377229 0.274796,0.3609119 9.87e-4,0.023189 -0.623076,0.5923754 -1.386804,1.2648584 L 55.4457,5.8605106 55.4443,27.890128 55.4429,49.919745 h -0.252972 c -0.224864,0 -0.252972,0.02811 -0.252972,0.252971 v 0.252972 h -4.932947 -4.932948 v -0.421619 -0.42162 h 4.722138 4.722138 V 28.149482 6.7165138 L 54.325668,6.886965 c -0.104351,0.093748 -6.273202,5.587182 -13.708557,12.207631 -7.435355,6.620449 -13.506676,12.049208 -13.491823,12.063909 0.01485,0.0147 0.558246,-0.04484 1.20754,-0.132316 5.467253,-0.736561 11.985103,-1.269475 16.949103,-1.385796 1.113075,-0.02608 2.526554,-0.06922 3.141065,-0.09586 l 1.117291,-0.04844 v -2.225944 -2.225945 h 0.463782 0.463781 v 2.234583 2.234584 h 0.252972 c 0.250416,0 0.252971,0.0047 0.252971,0.463781 0,0.459096 -0.0026,0.463781 -0.252971,0.463781 H 50.46785 v 4.7643 4.7643 h -0.252972 c -0.224864,0 -0.252971,0.02811 -0.252971,0.252972 v 0.252972 H 33.286218 16.610531 l -5.087898,4.532409 -5.0878977,4.532409 4.2663777,0.02185 4.266378,0.02185 v 0.420846 0.420847 H 10.205209 5.4429267 L 4.4239174,51.33217 C 3.8634622,51.830735 3.3787459,52.244689 3.34677,52.252066 3.314794,52.259444 3.1655273,52.122263 3.0150662,51.94722 Z M 20.191831,36.087581 c 2.135452,-1.903177 3.88264,-3.472839 3.88264,-3.488135 0,-0.0535 -3.857056,0.631691 -6.155644,1.093525 -2.464812,0.495231 -4.15918,0.866682 -6.176725,1.354106 l -1.243777,0.300486 v 2.100172 2.100171 h 2.905433 2.905432 z m 29.348456,-1.093165 v -4.553491 l -0.358376,0.001 c -0.976676,0.0028 -6.107564,0.176379 -7.441584,0.25169 -4.46875,0.252279 -8.963231,0.664919 -12.901556,1.184496 -2.541431,0.335287 -2.349251,0.276071 -2.959754,0.911973 l -0.537605,0.559972 -0.151254,-0.192755 -0.151253,-0.192755 -2.527071,2.250921 c -1.389889,1.238006 -3.050621,2.719252 -3.690514,3.291658 L 17.657877,39.54786 H 33.599082 49.540287 Z M 20.322058,32.301981 c 1.020319,-0.185934 2.57453,-0.456146 3.453802,-0.600471 1.417384,-0.232652 1.632537,-0.289367 1.897287,-0.500134 0.478956,-0.381296 0.652257,-0.607589 0.797302,-1.041104 0.904679,-2.703933 -0.551037,-5.660148 -3.255509,-6.611166 -0.815442,-0.286748 -2.047476,-0.352451 -2.892882,-0.154277 -2.052103,0.481043 -3.61602,2.142106 -3.97526,4.222195 -0.211484,1.224547 0.0077,2.454935 0.629019,3.531378 0.339287,0.587797 1.211934,1.562067 1.36463,1.523548 0.06957,-0.01755 0.961292,-0.184035 1.981611,-0.369969 z"
       id="path399" />
    <path
       style="fill:#808080;stroke:#808080;stroke-width:1px;stroke-linecap:butt;stroke-linejoin:miter;stroke-opacity:1"
       d="M 5,50 H 15"
       id="path824"
       inkscape:path-effect="#path-effect826"
       inkscape:original-d="m 5,50 c 3.3343333,10e-4 6.667667,10e-4 10,0" />
    <path
       style="fill:none;stroke:#999999;stroke-width:1px;stroke-linecap:butt;stroke-linejoin:miter;stroke-opacity:1"
       d="M 55,6 V 50"
       id="path1158"
       inkscape:path-effect="#path-effect1160"
       inkscape:original-d="m 55,6 c 10e-4,14.667667 10e-4,29.334333 0,44" />
    <path
       style="fill:none;stroke:#999999;stroke-width:1px;stroke-linecap:butt;stroke-linejoin:miter;stroke-opacity:1"
       d="M 45,50 H 55"
       id="path1195"
       inkscape:path-effect="#path-effect1197"
       inkscape:original-d="m 45,50 c 3.334333,10e-4 6.667667,10e-4 10,0" />
    <path
       style="fill:none;stroke:#999999;stroke-width:1px;stroke-linecap:butt;stroke-linejoin:miter;stroke-opacity:1"
       d="m 26,32 c 8.265774,-1.305122 16.631864,-1.974409 25,-2 0.333332,-0.001 0.666668,-0.001 1,0"
       id="path1400"
       inkscape:path-effect="#path-effect1402"
       inkscape:original-d="m 26,32 c 8.334333,-0.665667 16.667667,-1.332333 25,-2 8.332333,-0.667667 0.667667,0.001 1,0" />
    <path
       style="fill:#999999;stroke:#999999;stroke-width:1px;stroke-linecap:butt;stroke-linejoin:miter;stroke-opacity:1"
       d="M 17,40 H 50"
       id="path1437"
       inkscape:path-effect="#path-effect1439"
       inkscape:original-d="m 17,40 c 11.001,10e-4 22.001,10e-4 33,0" />
  </g>
</svg>
