<?xml version="1.0" encoding="UTF-8" standalone="no"?>
<!-- Created with Inkscape (http://www.inkscape.org/) -->

<svg
   width="210mm"
   height="297mm"
   viewBox="0 0 210 297"
   version="1.1"
   id="svg5"
   inkscape:version="1.1 (c68e22c387, 2021-05-23)"
   sodipodi:docname="drawing.svg"
   xmlns:inkscape="http://www.inkscape.org/namespaces/inkscape"
   xmlns:sodipodi="http://sodipodi.sourceforge.net/DTD/sodipodi-0.dtd"
   xmlns="http://www.w3.org/2000/svg"
   xmlns:svg="http://www.w3.org/2000/svg">
  <sodipodi:namedview
     id="namedview7"
     pagecolor="#ffffff"
     bordercolor="#666666"
     borderopacity="1.0"
     inkscape:pageshadow="2"
     inkscape:pageopacity="0.0"
     inkscape:pagecheckerboard="0"
     inkscape:document-units="mm"
     showgrid="false"
     inkscape:zoom="0.25"
     inkscape:cx="2174"
     inkscape:cy="486"
     inkscape:window-width="1920"
     inkscape:window-height="1017"
     inkscape:window-x="-8"
     inkscape:window-y="-8"
     inkscape:window-maximized="1"
     inkscape:current-layer="layer1" />
  <defs
     id="defs2" />
  <g
     inkscape:label="Layer 1"
     inkscape:groupmode="layer"
     id="layer1">
    <path
       style="fill:#000000;fill-opacity:1;fill-rule:nonzero;stroke:none;stroke-width:0.264583"
       id="path87"
       d="m 98.783364,61.681703 c 0.03565,5.847395 0.01995,11.694935 0.02762,17.542401 -0.0011,5.721467 -0.0062,11.442933 -0.01259,17.164392 0.191863,3.894844 0.62583,7.771214 0.858785,11.663584 0.611951,5.32014 0.920491,10.66708 1.390831,16.001 0.43238,4.75244 0.71324,9.51608 0.85545,14.28557 0.22947,3.19029 -0.1629,6.3515 -0.40969,9.52627 -0.39596,4.4379 -1.36209,8.78787 -2.070092,13.17954 -0.366564,4.28886 -1.321339,8.48829 -2.051666,12.72212 0,0 3.535868,-1.72657 3.535868,-1.72657 v 0 c 0.72295,-4.23612 1.6472,-8.44118 2.05026,-12.72616 0.70284,-4.39813 1.64957,-8.75796 2.0447,-13.20137 0.26807,-3.19 0.6628,-6.36692 0.40546,-9.57408 -0.1692,-4.76808 -0.47509,-9.52938 -0.91177,-14.28074 -0.46903,-5.33801 -0.7626,-10.68885 -1.33733,-16.01693 -0.24144,-3.88054 -0.69619,-7.744198 -0.87427,-11.628713 -0.006,-5.717183 -0.0114,-11.434373 -0.0126,-17.151561 0.008,-5.856851 -0.008,-11.713774 0.0276,-17.570551 0,0 -3.516605,1.791798 -3.516605,1.791798 z" />
    <path
       style="fill:#000000;fill-opacity:1;fill-rule:nonzero;stroke:none;stroke-width:0.264583"
       id="path89"
       d="m 77.099585,137.57699 c 1.866072,4.7954 4.343654,9.29802 6.631704,13.89528 2.213846,4.28513 4.410782,8.53799 7.060261,12.57427 2.639351,3.5859 5.648262,6.85368 8.273378,10.45323 0.821312,1.22871 1.620992,2.45619 2.275192,3.78192 0.27538,0.55804 0.47956,1.09811 0.59205,1.00892 1.27791,-1.01327 2.3974,-2.2117 3.5961,-3.31755 0.4166,-5.79662 1.10967,-11.56925 2.54605,-17.2054 0.84889,-2.50449 1.32457,-5.33468 2.8228,-7.57669 0.8501,-1.27213 1.59688,-1.85416 2.71699,-2.92253 2.60838,-2.24294 5.34195,-4.38545 8.17691,-6.34164 0.61119,-0.42173 1.37517,-0.65881 1.86726,-1.21493 0.43281,-0.48912 -1.12119,0.67022 -1.68179,1.00534 0.49502,-0.19529 0.99004,-0.39058 1.48507,-0.58587 0,0 3.10524,-2.43088 3.10524,-2.43088 v 0 c -0.51051,0.18166 -1.02101,0.36331 -1.53152,0.54497 -5.32453,3.06234 -10.52014,6.32533 -15.04809,10.5198 -1.18401,1.17789 -1.8114,1.65538 -2.68297,3.04453 -1.43953,2.29437 -1.92267,5.11122 -2.74764,7.643 -1.39202,5.67279 -2.07839,11.4658 -2.56491,17.28174 1.11353,-0.17689 2.23849,-0.29275 3.34059,-0.53067 0.0785,-0.0169 -0.14594,-0.0818 -0.18868,-0.14974 -0.14547,-0.23134 -0.24234,-0.48991 -0.3666,-0.73331 -0.68131,-1.33446 -1.4848,-2.58489 -2.32689,-3.82454 -2.632536,-3.58554 -5.637684,-6.84998 -8.272408,-10.43114 -2.650095,-4.01729 -4.839755,-8.2567 -7.049315,-12.52648 -2.290656,-4.5907 -4.785976,-9.08328 -6.581862,-13.90357 0,0 -3.44692,1.94194 -3.44692,1.94194 z" />
    <path
       style="fill:#000000;fill-opacity:1;fill-rule:nonzero;stroke:none;stroke-width:0.264583"
       id="path91"
       d="m 59.060913,189.54456 c 7.15365,-0.13537 14.299305,0.30296 21.443428,0.60618 6.181603,0.26369 12.368191,0.3677 18.55465,0.42477 4.751249,0.0386 9.502669,0.0252 14.253999,0.0187 6.1979,-0.005 12.3958,-0.009 18.5937,-0.01 5.97253,-7.9e-4 11.95517,-0.18378 17.88976,0.59402 2.42162,0.42349 1.26072,0.20917 3.48362,0.63796 0,0 3.23321,-2.25666 3.23321,-2.25666 v 0 c -2.24211,-0.42813 -1.07035,-0.21245 -3.51607,-0.64276 -5.95159,-0.8023 -11.95514,-0.61898 -17.94708,-0.61645 -6.19349,5.3e-4 -12.38697,-0.002 -18.58045,2.2e-4 -4.74846,-0.003 -9.49696,-0.001 -14.2454,-0.0208 -6.195499,-0.044 -12.391196,-0.134 -18.582168,-0.38883 -7.125745,-0.29116 -14.250231,-0.73322 -21.384604,-0.66881 0,0 -3.196595,2.32246 -3.196595,2.32246 z" />
  </g>
</svg>
