<?xml version="1.0" encoding="UTF-8" standalone="no"?>
<!-- Created with Inkscape (http://www.inkscape.org/) -->

<svg
   width="60.0px"
   height="60.0px"
   viewBox="0 0 60.0 60.0"
   version="1.1"
   id="SVGRoot"
   sodipodi:docname="message.svg"
   inkscape:version="1.1 (c68e22c387, 2021-05-23)"
   xmlns:inkscape="http://www.inkscape.org/namespaces/inkscape"
   xmlns:sodipodi="http://sodipodi.sourceforge.net/DTD/sodipodi-0.dtd"
   xmlns="http://www.w3.org/2000/svg"
   xmlns:svg="http://www.w3.org/2000/svg">
  <sodipodi:namedview
     id="namedview1386"
     pagecolor="#ffffff"
     bordercolor="#666666"
     borderopacity="1.0"
     inkscape:pageshadow="2"
     inkscape:pageopacity="0.0"
     inkscape:pagecheckerboard="0"
     inkscape:document-units="px"
     showgrid="true"
     inkscape:zoom="11.859035"
     inkscape:cx="29.386877"
     inkscape:cy="31.242002"
     inkscape:window-width="1920"
     inkscape:window-height="1017"
     inkscape:window-x="-8"
     inkscape:window-y="-8"
     inkscape:window-maximized="1"
     inkscape:current-layer="layer1">
    <inkscape:grid
       type="xygrid"
       id="grid1392" />
  </sodipodi:namedview>
  <defs
     id="defs1381">
    <inkscape:path-effect
       effect="spiro"
       id="path-effect2423"
       is_visible="true"
       lpeversion="1" />
    <inkscape:path-effect
       effect="spiro"
       id="path-effect2419"
       is_visible="true"
       lpeversion="1" />
    <inkscape:path-effect
       effect="spiro"
       id="path-effect2415"
       is_visible="true"
       lpeversion="1" />
    <inkscape:path-effect
       effect="spiro"
       id="path-effect2411"
       is_visible="true"
       lpeversion="1" />
    <inkscape:path-effect
       effect="spiro"
       id="path-effect2407"
       is_visible="true"
       lpeversion="1" />
    <inkscape:path-effect
       effect="spiro"
       id="path-effect4817"
       is_visible="true"
       lpeversion="1" />
    <inkscape:path-effect
       effect="spiro"
       id="path-effect4248"
       is_visible="true"
       lpeversion="1" />
    <inkscape:path-effect
       effect="spiro"
       id="path-effect3679"
       is_visible="true"
       lpeversion="1" />
    <inkscape:path-effect
       effect="spiro"
       id="path-effect3675"
       is_visible="true"
       lpeversion="1" />
    <inkscape:path-effect
       effect="spiro"
       id="path-effect3671"
       is_visible="true"
       lpeversion="1" />
    <inkscape:path-effect
       effect="spiro"
       id="path-effect3667"
       is_visible="true"
       lpeversion="1" />
    <inkscape:path-effect
       effect="spiro"
       id="path-effect3663"
       is_visible="true"
       lpeversion="1" />
    <inkscape:path-effect
       effect="spiro"
       id="path-effect3659"
       is_visible="true"
       lpeversion="1" />
    <inkscape:path-effect
       effect="spiro"
       id="path-effect3655"
       is_visible="true"
       lpeversion="1" />
    <inkscape:path-effect
       effect="spiro"
       id="path-effect3651"
       is_visible="true"
       lpeversion="1" />
    <inkscape:path-effect
       effect="spiro"
       id="path-effect3647"
       is_visible="true"
       lpeversion="1" />
    <inkscape:path-effect
       effect="spiro"
       id="path-effect3643"
       is_visible="true"
       lpeversion="1" />
    <inkscape:path-effect
       effect="spiro"
       id="path-effect3366"
       is_visible="true"
       lpeversion="1" />
    <inkscape:path-effect
       effect="spiro"
       id="path-effect3362"
       is_visible="true"
       lpeversion="1" />
    <inkscape:path-effect
       effect="spiro"
       id="path-effect3358"
       is_visible="true"
       lpeversion="1" />
    <inkscape:path-effect
       effect="spiro"
       id="path-effect3354"
       is_visible="true"
       lpeversion="1" />
    <inkscape:path-effect
       effect="spiro"
       id="path-effect3350"
       is_visible="true"
       lpeversion="1" />
    <inkscape:path-effect
       effect="spiro"
       id="path-effect3346"
       is_visible="true"
       lpeversion="1" />
    <inkscape:path-effect
       effect="spiro"
       id="path-effect3342"
       is_visible="true"
       lpeversion="1" />
    <inkscape:path-effect
       effect="spiro"
       id="path-effect3338"
       is_visible="true"
       lpeversion="1" />
    <inkscape:path-effect
       effect="spiro"
       id="path-effect3334"
       is_visible="true"
       lpeversion="1" />
    <inkscape:path-effect
       effect="spiro"
       id="path-effect3322"
       is_visible="true"
       lpeversion="1" />
    <inkscape:path-effect
       effect="spiro"
       id="path-effect3314"
       is_visible="true"
       lpeversion="1" />
    <inkscape:path-effect
       effect="spiro"
       id="path-effect2703"
       is_visible="true"
       lpeversion="1" />
    <inkscape:path-effect
       effect="spiro"
       id="path-effect2699"
       is_visible="true"
       lpeversion="1" />
    <inkscape:path-effect
       effect="spiro"
       id="path-effect2695"
       is_visible="true"
       lpeversion="1" />
    <inkscape:path-effect
       effect="spiro"
       id="path-effect2691"
       is_visible="true"
       lpeversion="1" />
    <inkscape:path-effect
       effect="spiro"
       id="path-effect2687"
       is_visible="true"
       lpeversion="1" />
    <inkscape:path-effect
       effect="spiro"
       id="path-effect2683"
       is_visible="true"
       lpeversion="1" />
    <inkscape:path-effect
       effect="spiro"
       id="path-effect2679"
       is_visible="true"
       lpeversion="1" />
    <inkscape:path-effect
       effect="spiro"
       id="path-effect1536"
       is_visible="true"
       lpeversion="1" />
    <inkscape:path-effect
       effect="spiro"
       id="path-effect1532"
       is_visible="true"
       lpeversion="1" />
    <inkscape:path-effect
       effect="spiro"
       id="path-effect1528"
       is_visible="true"
       lpeversion="1" />
    <inkscape:path-effect
       effect="spiro"
       id="path-effect1524"
       is_visible="true"
       lpeversion="1" />
    <inkscape:path-effect
       effect="spiro"
       id="path-effect1516"
       is_visible="true"
       lpeversion="1" />
    <inkscape:path-effect
       effect="spiro"
       id="path-effect1512"
       is_visible="true"
       lpeversion="1" />
    <inkscape:path-effect
       effect="spiro"
       id="path-effect1496"
       is_visible="true"
       lpeversion="1" />
    <inkscape:path-effect
       effect="spiro"
       id="path-effect1492"
       is_visible="true"
       lpeversion="1" />
    <inkscape:path-effect
       effect="spiro"
       id="path-effect1488"
       is_visible="true"
       lpeversion="1" />
    <inkscape:path-effect
       effect="spiro"
       id="path-effect1484"
       is_visible="true"
       lpeversion="1" />
    <inkscape:path-effect
       effect="spiro"
       id="path-effect1480"
       is_visible="true"
       lpeversion="1" />
    <inkscape:path-effect
       effect="spiro"
       id="path-effect1476"
       is_visible="true"
       lpeversion="1" />
    <inkscape:path-effect
       effect="spiro"
       id="path-effect1472"
       is_visible="true"
       lpeversion="1" />
    <inkscape:path-effect
       effect="spiro"
       id="path-effect1468"
       is_visible="true"
       lpeversion="1" />
    <inkscape:path-effect
       effect="spiro"
       id="path-effect1464"
       is_visible="true"
       lpeversion="1" />
    <inkscape:path-effect
       effect="spiro"
       id="path-effect1460"
       is_visible="true"
       lpeversion="1" />
    <inkscape:path-effect
       effect="spiro"
       id="path-effect1456"
       is_visible="true"
       lpeversion="1" />
    <inkscape:path-effect
       effect="spiro"
       id="path-effect1452"
       is_visible="true"
       lpeversion="1" />
  </defs>
  <g
     inkscape:label="Layer 1"
     inkscape:groupmode="layer"
     id="layer1">
    <path
       style="fill:none;stroke:#000000;stroke-width:1.10841px;stroke-linecap:butt;stroke-linejoin:miter;stroke-opacity:1"
       d="M 5,10 V 53"
       id="path3312"
       inkscape:path-effect="#path-effect3314"
       inkscape:original-d="M 5,10 C 5.001,24.334562 5.001,38.667895 5,53" />
    <path
       style="fill:none;stroke:#000000;stroke-width:1.3363px;stroke-linecap:butt;stroke-linejoin:miter;stroke-opacity:1"
       d="M 55,10 H 5"
       id="path3320"
       inkscape:original-d="M 55,10 C 38.335119,10.001 21.668451,10.001 5,10"
       inkscape:path-effect="#path-effect3322" />
    <path
       style="fill:none;stroke:#000000;stroke-width:1.31149px;stroke-linecap:butt;stroke-linejoin:miter;stroke-opacity:1"
       d="M 55,53 V 10"
       id="path3340"
       inkscape:path-effect="#path-effect3342"
       inkscape:original-d="M 55,53 C 55.001,38.668387 55.001,24.335053 55,10" />
    <path
       style="opacity:0;fill:#b3b3b3;stroke-width:0.0843239"
       d="M 10.582649,30.061468 V 10.624811 h 3.457279 3.45728 v 4.722138 4.722138 h 0.21081 c 0.184709,0 0.210809,0.03654 0.210809,0.295133 v 0.295134 h 11.04643 11.04643 V 20.36422 c 0,-0.27171 0.02008,-0.295133 0.252972,-0.295133 h 0.252972 v -4.722138 -4.722138 h 1.642622 1.642623 l 2.784382,3.244497 2.784381,3.244497 v 16.19216 16.19216 h -1.855125 -1.855126 v -7.37834 -7.378341 h -0.295133 c -0.258594,0 -0.295134,-0.0261 -0.295134,-0.21081 V 34.319825 H 29.934982 14.798843 v 0.337295 c 0,0.303566 -0.02108,0.337296 -0.210809,0.337296 h -0.21081 v 7.251854 7.251855 h -1.897288 -1.897287 z"
       id="path4361" />
    <path
       style="opacity:0;fill:#b3b3b3;stroke-width:0.0843239"
       d="M 10.582649,30.061468 V 10.624811 h 3.457279 3.45728 v 4.722138 4.722138 h 0.21081 c 0.184709,0 0.210809,0.03654 0.210809,0.295133 v 0.295134 h 11.04643 11.04643 V 20.36422 c 0,-0.27171 0.02008,-0.295133 0.252972,-0.295133 h 0.252972 v -4.722138 -4.722138 h 1.642622 1.642623 l 2.784382,3.244497 2.784381,3.244497 v 16.19216 16.19216 h -1.855125 -1.855126 v -7.37834 -7.378341 h -0.295133 c -0.258594,0 -0.295134,-0.0261 -0.295134,-0.21081 V 34.319825 H 29.934982 14.798843 v 0.337295 c 0,0.303566 -0.02108,0.337296 -0.210809,0.337296 h -0.21081 v 7.251854 7.251855 h -1.897288 -1.897287 z"
       id="path4400" />
    <path
       style="opacity:0;fill:#b3b3b3;stroke-width:0.0843239"
       d="M 10.582649,30.061468 V 10.624811 h 3.457279 3.45728 v 4.722138 4.722138 h 0.21081 c 0.184709,0 0.210809,0.03654 0.210809,0.295133 v 0.295134 h 11.04643 11.04643 V 20.36422 c 0,-0.27171 0.02008,-0.295133 0.252972,-0.295133 h 0.252972 v -4.722138 -4.722138 h 1.642622 1.642623 l 2.784382,3.244497 2.784381,3.244497 v 16.19216 16.19216 h -1.855125 -1.855126 v -7.37834 -7.378341 h -0.295133 c -0.258594,0 -0.295134,-0.0261 -0.295134,-0.21081 V 34.319825 H 29.934982 14.798843 v 0.337295 c 0,0.303566 -0.02108,0.337296 -0.210809,0.337296 h -0.21081 v 7.251854 7.251855 h -1.897288 -1.897287 z"
       id="path4476" />
    <path
       style="opacity:0;fill:#b3b3b3;stroke-width:0.0843239"
       d="M 10.582649,30.061468 V 10.624811 h 3.457279 3.45728 v 4.722138 4.722138 h 0.21081 c 0.184709,0 0.210809,0.03654 0.210809,0.295133 v 0.295134 h 11.04643 11.04643 V 20.36422 c 0,-0.27171 0.02008,-0.295133 0.252972,-0.295133 h 0.252972 v -4.722138 -4.722138 h 1.642622 1.642623 l 2.784382,3.244497 2.784381,3.244497 v 16.19216 16.19216 h -1.855125 -1.855126 v -7.37834 -7.378341 h -0.295133 c -0.258594,0 -0.295134,-0.0261 -0.295134,-0.21081 V 34.319825 H 29.934982 14.798843 v 0.337295 c 0,0.303566 -0.02108,0.337296 -0.210809,0.337296 h -0.21081 v 7.251854 7.251855 h -1.897288 -1.897287 z"
       id="path4515" />
    <path
       style="opacity:0;fill:#b3b3b3;stroke-width:0.0843239"
       d="M 10.582649,30.061468 V 10.624811 h 3.457279 3.45728 v 4.722138 4.722138 h 0.21081 c 0.184709,0 0.210809,0.03654 0.210809,0.295133 v 0.295134 h 11.04643 11.04643 V 20.36422 c 0,-0.27171 0.02008,-0.295133 0.252972,-0.295133 h 0.252972 v -4.722138 -4.722138 h 1.642622 1.642623 l 2.784382,3.244497 2.784381,3.244497 v 16.19216 16.19216 h -1.855125 -1.855126 v -7.37834 -7.378341 h -0.295133 c -0.258594,0 -0.295134,-0.0261 -0.295134,-0.21081 V 34.319825 H 29.934982 14.798843 v 0.337295 c 0,0.303566 -0.02108,0.337296 -0.210809,0.337296 h -0.21081 v 7.251854 7.251855 h -1.897288 -1.897287 z"
       id="path4554" />
    <path
       style="opacity:0;fill:#b3b3b3;stroke-width:0.0843239"
       d="M 10.582649,30.061468 V 10.624811 h 3.457279 3.45728 v 4.722138 4.722138 h 0.21081 c 0.184709,0 0.210809,0.03654 0.210809,0.295133 v 0.295134 h 11.04643 11.04643 V 20.36422 c 0,-0.27171 0.02008,-0.295133 0.252972,-0.295133 h 0.252972 v -4.722138 -4.722138 h 1.642622 1.642623 l 2.784382,3.244497 2.784381,3.244497 v 16.19216 16.19216 h -1.855125 -1.855126 v -7.37834 -7.378341 h -0.295133 c -0.258594,0 -0.295134,-0.0261 -0.295134,-0.21081 V 34.319825 H 29.934982 14.798843 v 0.337295 c 0,0.303566 -0.02108,0.337296 -0.210809,0.337296 h -0.21081 v 7.251854 7.251855 h -1.897288 -1.897287 z"
       id="path4593" />
    <path
       style="opacity:0;fill:#940000;fill-opacity:0.991968;stroke:#f90000"
       id="path2370"
       d="m -4.8290304,63.93558 c 0.4344938,-0.210472 0.9105587,-0.295141 1.3730958,-0.420773 0.2088346,-0.05672 0.4139377,-0.128474 0.6256467,-0.173292 0.3888204,-0.08231 0.9299355,-0.123393 1.3221043,-0.161493 3.2510358,-0.420208 -1.669337,0.207498 1.67143581,-0.190439 0.32754813,-0.03902 0.65322325,-0.0926 0.98050749,-0.133773 0.3429311,-0.04314 0.6890543,-0.06261 1.0300337,-0.119146 0.6740906,-0.11176 3.7729672,-0.788354 3.9905988,-0.835043 1.7209911,-0.02334 2.12894,-0.265677 3.5736864,0.427506 0.7139004,0.122222 0.9163834,0.924732 1.4814254,1.228471 0.733827,0.394469 1.454144,0.28561 2.244291,0.284168 2.368274,-0.61689 4.570696,-1.752406 6.988665,-2.202982 1.09339,-0.203747 1.972898,-0.213441 2.993481,0.152198 0.261313,0.09362 0.483946,0.272016 0.725919,0.408024 0.410486,0.357809 0.49065,0.350344 0.722086,0.802855 0.05406,0.105701 0.08043,0.223411 0.120639,0.335117 0,0 27.849729,-20.295361 27.849729,-20.295361 v 0 c -1.42972,0.450968 -2.860716,0.899598 -4.313363,1.272687 -1.340586,0.346202 -2.972181,0.801511 -4.337325,1.010869 -0.685622,0.105146 -1.37869,0.204509 -2.072184,0.190398 -0.486914,-0.0099 -0.967878,-0.132444 -1.437397,-0.261812 -3.455542,-0.952118 1.139071,0.03114 -1.63668,-0.532788 -0.383603,0.11432 -1.725681,0.519634 -2.063045,0.595981 -1.288593,0.291612 -2.248513,0.442392 -3.589105,0.442658 -0.623216,1.24e-4 -1.260245,0.02308 -1.865409,-0.125831 -0.4657,-0.114594 -0.856009,-0.43276 -1.284013,-0.649139 -0.187834,-0.346746 -0.319605,-0.730353 -0.563501,-1.040238 -0.449653,-0.571309 -0.762894,-0.555897 -1.393452,-0.731145 -0.202563,-0.0563 -0.402786,-0.121631 -0.60743,-0.169816 -1.396812,-0.328886 0.194699,0.110622 -1.018985,-0.236281 -0.222574,-0.04729 -0.598738,-0.109755 -0.812488,-0.217692 -0.183411,-0.09262 -0.26499,-0.208926 -0.405459,-0.338547 -0.03782,-0.0349 -0.105733,-0.04959 -0.118004,-0.09958 -0.01456,-0.05929 0.03355,-0.117411 0.05032,-0.176116 0,0 -30.2258284,21.96035 -30.2258284,21.96035 z" />
    <path
       style="fill:none;stroke:#000000;stroke-width:1.11681px;stroke-linecap:butt;stroke-linejoin:miter;stroke-opacity:1"
       d="M 5,53 H 54.890786"
       id="path2405"
       inkscape:path-effect="#path-effect2407"
       inkscape:original-d="m 5,53 c 16.631509,10e-4 33.261771,10e-4 49.890786,0" />
    <path
       style="fill:none;stroke:#000000;stroke-width:1.1239px;stroke-linecap:butt;stroke-linejoin:miter;stroke-opacity:1"
       d="M 6,10 30,35"
       id="path2409"
       inkscape:path-effect="#path-effect2411"
       inkscape:original-d="m 6,10 c 8.001263,8.334333 16.001264,16.667667 24,25" />
    <path
       style="fill:none;stroke:#000000;stroke-width:1.11803px;stroke-linecap:butt;stroke-linejoin:miter;stroke-opacity:1"
       d="M 55,11 30,35"
       id="path2413"
       inkscape:path-effect="#path-effect2415"
       inkscape:original-d="M 55,11 C 46.667916,19.001 38.334584,27.001 30,35" />
    <path
       style="fill:none;stroke:#000000;stroke-width:1.14564px;stroke-linecap:butt;stroke-linejoin:miter;stroke-opacity:1"
       d="M 26,30 5,53"
       id="path2417"
       inkscape:path-effect="#path-effect2419"
       inkscape:original-d="M 26,30 C 19.001313,37.667667 12.001312,45.334333 5,53" />
    <path
       style="fill:none;stroke:#000000;stroke-width:1.14477px;stroke-linecap:butt;stroke-linejoin:miter;stroke-opacity:1"
       d="M 35.074439,30.049241 54.816347,52.950759"
       id="path2421"
       inkscape:path-effect="#path-effect2423"
       inkscape:original-d="m 35.074439,30.049241 c 6.581952,7.634835 13.162588,15.268674 19.741908,22.901518" />
  </g>
</svg>
