<?xml version="1.0" encoding="UTF-8" standalone="no"?>
<!-- Created with Inkscape (http://www.inkscape.org/) -->

<svg
   width="60.0px"
   height="60.0px"
   viewBox="0 0 60.0 60.0"
   version="1.1"
   id="SVGRoot"
   sodipodi:docname="pen-colour.svg"
   inkscape:version="1.1 (c68e22c387, 2021-05-23)"
   xmlns:inkscape="http://www.inkscape.org/namespaces/inkscape"
   xmlns:sodipodi="http://sodipodi.sourceforge.net/DTD/sodipodi-0.dtd"
   xmlns="http://www.w3.org/2000/svg"
   xmlns:svg="http://www.w3.org/2000/svg">
  <sodipodi:namedview
     id="namedview33979"
     pagecolor="#ffffff"
     bordercolor="#666666"
     borderopacity="1.0"
     inkscape:pageshadow="2"
     inkscape:pageopacity="0.0"
     inkscape:pagecheckerboard="0"
     inkscape:document-units="px"
     showgrid="true"
     inkscape:zoom="11.859035"
     inkscape:cx="33.3501"
     inkscape:cy="32.759833"
     inkscape:window-width="1920"
     inkscape:window-height="1017"
     inkscape:window-x="-8"
     inkscape:window-y="-8"
     inkscape:window-maximized="1"
     inkscape:current-layer="layer1">
    <inkscape:grid
       type="xygrid"
       id="grid33985" />
  </sodipodi:namedview>
  <defs
     id="defs33974">
    <inkscape:path-effect
       effect="spiro"
       id="path-effect38228"
       is_visible="true"
       lpeversion="1" />
    <inkscape:path-effect
       effect="spiro"
       id="path-effect38224"
       is_visible="true"
       lpeversion="1" />
    <inkscape:path-effect
       effect="spiro"
       id="path-effect38220"
       is_visible="true"
       lpeversion="1" />
    <inkscape:path-effect
       effect="spiro"
       id="path-effect38216"
       is_visible="true"
       lpeversion="1" />
    <inkscape:path-effect
       effect="spiro"
       id="path-effect37992"
       is_visible="true"
       lpeversion="1" />
    <inkscape:path-effect
       effect="spiro"
       id="path-effect37988"
       is_visible="true"
       lpeversion="1" />
    <inkscape:path-effect
       effect="spiro"
       id="path-effect37984"
       is_visible="true"
       lpeversion="1" />
    <inkscape:path-effect
       effect="spiro"
       id="path-effect37347"
       is_visible="true"
       lpeversion="1" />
    <inkscape:path-effect
       effect="spiro"
       id="path-effect37343"
       is_visible="true"
       lpeversion="1" />
    <inkscape:path-effect
       effect="spiro"
       id="path-effect37339"
       is_visible="true"
       lpeversion="1" />
    <inkscape:path-effect
       effect="spiro"
       id="path-effect37335"
       is_visible="true"
       lpeversion="1" />
    <inkscape:path-effect
       effect="spiro"
       id="path-effect37331"
       is_visible="true"
       lpeversion="1" />
    <inkscape:path-effect
       effect="spiro"
       id="path-effect36563"
       is_visible="true"
       lpeversion="1" />
    <inkscape:path-effect
       effect="spiro"
       id="path-effect36329"
       is_visible="true"
       lpeversion="1" />
    <inkscape:path-effect
       effect="spiro"
       id="path-effect36325"
       is_visible="true"
       lpeversion="1" />
    <inkscape:path-effect
       effect="spiro"
       id="path-effect36321"
       is_visible="true"
       lpeversion="1" />
    <inkscape:path-effect
       effect="spiro"
       id="path-effect36317"
       is_visible="true"
       lpeversion="1" />
    <inkscape:path-effect
       effect="spiro"
       id="path-effect36313"
       is_visible="true"
       lpeversion="1" />
    <inkscape:path-effect
       effect="spiro"
       id="path-effect35999"
       is_visible="true"
       lpeversion="1" />
    <inkscape:path-effect
       effect="spiro"
       id="path-effect35995"
       is_visible="true"
       lpeversion="1" />
    <inkscape:path-effect
       effect="spiro"
       id="path-effect35991"
       is_visible="true"
       lpeversion="1" />
    <inkscape:path-effect
       effect="spiro"
       id="path-effect35987"
       is_visible="true"
       lpeversion="1" />
    <inkscape:path-effect
       effect="spiro"
       id="path-effect35983"
       is_visible="true"
       lpeversion="1" />
    <inkscape:path-effect
       effect="spiro"
       id="path-effect35979"
       is_visible="true"
       lpeversion="1" />
    <inkscape:path-effect
       effect="spiro"
       id="path-effect35975"
       is_visible="true"
       lpeversion="1" />
    <inkscape:path-effect
       effect="spiro"
       id="path-effect35971"
       is_visible="true"
       lpeversion="1" />
    <inkscape:path-effect
       effect="spiro"
       id="path-effect34150"
       is_visible="true"
       lpeversion="1" />
    <inkscape:path-effect
       effect="spiro"
       id="path-effect34146"
       is_visible="true"
       lpeversion="1" />
    <inkscape:path-effect
       effect="spiro"
       id="path-effect34142"
       is_visible="true"
       lpeversion="1" />
    <inkscape:path-effect
       effect="spiro"
       id="path-effect34138"
       is_visible="true"
       lpeversion="1" />
    <inkscape:path-effect
       effect="spiro"
       id="path-effect34134"
       is_visible="true"
       lpeversion="1" />
    <inkscape:path-effect
       effect="spiro"
       id="path-effect34130"
       is_visible="true"
       lpeversion="1" />
    <inkscape:path-effect
       effect="spiro"
       id="path-effect34126"
       is_visible="true"
       lpeversion="1" />
    <inkscape:path-effect
       effect="spiro"
       id="path-effect34122"
       is_visible="true"
       lpeversion="1" />
    <inkscape:path-effect
       effect="spiro"
       id="path-effect34118"
       is_visible="true"
       lpeversion="1" />
    <inkscape:path-effect
       effect="spiro"
       id="path-effect34114"
       is_visible="true"
       lpeversion="1" />
    <inkscape:path-effect
       effect="spiro"
       id="path-effect34110"
       is_visible="true"
       lpeversion="1" />
    <inkscape:path-effect
       effect="spiro"
       id="path-effect34106"
       is_visible="true"
       lpeversion="1" />
    <inkscape:path-effect
       effect="spiro"
       id="path-effect34102"
       is_visible="true"
       lpeversion="1" />
    <inkscape:path-effect
       effect="spiro"
       id="path-effect34098"
       is_visible="true"
       lpeversion="1" />
    <inkscape:path-effect
       effect="spiro"
       id="path-effect34094"
       is_visible="true"
       lpeversion="1" />
    <inkscape:path-effect
       effect="spiro"
       id="path-effect34090"
       is_visible="true"
       lpeversion="1" />
    <inkscape:path-effect
       effect="spiro"
       id="path-effect34082"
       is_visible="true"
       lpeversion="1" />
    <inkscape:path-effect
       effect="spiro"
       id="path-effect34078"
       is_visible="true"
       lpeversion="1" />
  </defs>
  <g
     inkscape:label="Layer 1"
     inkscape:groupmode="layer"
     id="layer1">
    <path
       style="fill:none;stroke:#000000;stroke-width:1px;stroke-linecap:butt;stroke-linejoin:miter;stroke-opacity:1"
       d="M 15,5 45,35"
       id="path35969"
       inkscape:path-effect="#path-effect35971"
       inkscape:original-d="M 15,5 C 25.001,15.001 35.001,25.001 45,35" />
    <path
       style="fill:none;stroke:#000000;stroke-width:1px;stroke-linecap:butt;stroke-linejoin:miter;stroke-opacity:1"
       d="M 5,15 35,45"
       id="path35973"
       inkscape:path-effect="#path-effect35975"
       inkscape:original-d="M 5,15 C 15.001,25.001 25.001,35.001 35,45" />
    <path
       style="fill:none;stroke:#000000;stroke-width:1px;stroke-linecap:butt;stroke-linejoin:miter;stroke-opacity:1"
       d="M 15,5 5,15"
       id="path35977"
       inkscape:path-effect="#path-effect35979"
       inkscape:original-d="M 15,5 C 11.667667,8.3343333 8.3343333,11.667667 5,15" />
    <path
       style="fill:none;stroke:#000000;stroke-width:1px;stroke-linecap:butt;stroke-linejoin:miter;stroke-opacity:1"
       d="M 45,35 35,45"
       id="path35981"
       inkscape:path-effect="#path-effect35983"
       inkscape:original-d="m 45,35 c -3.332333,3.334333 -6.665667,6.667667 -10,10" />
    <path
       style="fill:none;stroke:#000000;stroke-width:1px;stroke-linecap:butt;stroke-linejoin:miter;stroke-opacity:1"
       d="M 50,50 45,35"
       id="path35985"
       inkscape:path-effect="#path-effect35987"
       inkscape:original-d="M 50,50 C 48.334333,45.001 46.667667,40.001 45,35" />
    <path
       style="fill:none;stroke:#000000;stroke-width:1px;stroke-linecap:butt;stroke-linejoin:miter;stroke-opacity:1"
       d="m 35,45 15,5"
       id="path35989"
       inkscape:path-effect="#path-effect35991"
       inkscape:original-d="m 35,45 c 5.001,1.667667 10.001,3.334333 15,5" />
    <path
       style="fill:none;stroke:#000000;stroke-width:1.03391px;stroke-linecap:butt;stroke-linejoin:miter;stroke-opacity:1"
       d="M 12,8 42,38"
       id="path35993"
       inkscape:path-effect="#path-effect35995"
       inkscape:original-d="M 12,8 C 22.001035,18.334367 32.001034,27.6677 42,38"
       sodipodi:nodetypes="cc" />
    <path
       style="fill:none;stroke:#000000;stroke-width:0.983739px;stroke-linecap:butt;stroke-linejoin:miter;stroke-opacity:1"
       d="M 8,12 38,42"
       id="path35997"
       inkscape:path-effect="#path-effect35999"
       inkscape:original-d="M 8,12 C 18.001,22.000967 28.001,32.000968 38,42" />
    <path
       style="fill:none;stroke:#000000;stroke-width:1px;stroke-linecap:butt;stroke-linejoin:miter;stroke-opacity:1"
       d="m 49,48 c -0.194722,0.107861 -0.297711,0.462539 -0.51376,0.570563 -0.05028,0.02514 -0.128898,-0.03975 -0.168648,0 C 48.120054,48.768101 48.608128,48.759789 48,49"
       id="path36194" />
    <path
       style="fill:none;stroke:#000000;stroke-width:1px;stroke-linecap:butt;stroke-linejoin:miter;stroke-opacity:1"
       d="m 49,49 c 0.102009,0.102009 0.102009,0.102009 0,0 0.08172,0.166042 0.14306,0.343774 0.245155,0.498126 0.03467,0.05242 0.207581,0.03498 0.168647,0.08432 C 49.292419,49.73628 49.137934,49.860817 49,50"
       id="path36196" />
    <path
       style="fill:none;stroke:#000000;stroke-width:1px;stroke-linecap:butt;stroke-linejoin:miter;stroke-opacity:1"
       d="m 49,47 c -0.525221,0.154553 -0.672603,0.300803 -1.019704,0.474353 -0.112939,0.05647 -0.116842,0.201165 -0.168648,0.252971 -0.01554,0.01554 -0.237434,0.06879 -0.252971,0.08432 -0.05622,0.05622 -0.02811,0.196756 -0.08432,0.252972 -0.03975,0.03975 -0.128897,-0.03975 -0.168648,0 -0.04216,0.04216 -0.04216,0.126486 -0.08432,0.168648 -0.01987,0.01987 -0.06445,-0.01988 -0.08432,0 -0.03975,0.03975 0.03975,0.128897 0,0.168648 -0.04216,0.04216 -0.126486,0.04216 -0.168648,0.08432 C 46.904477,48.550172 46.984605,48.955097 47,49"
       id="path36444" />
    <path
       style="fill:none;stroke:#000000;stroke-width:1px;stroke-linecap:butt;stroke-linejoin:miter;stroke-opacity:1"
       d="m 48,48 c -0.140069,0.735536 0.506437,0.422113 0.739211,0.654887 0.01988,0.01988 -0.02514,0.07175 0,0.08432 0.05028,0.02514 0.118367,-0.02514 0.168648,0 0.02514,0.01257 -0.01987,0.06445 0,0.08432 0.04216,0.04216 0.21081,-0.04216 0.252972,0 0.05349,0.05349 -0.0351,0.267089 0,0.337296 0.03838,0.07677 0.143047,0.564667 0.168647,0.590267 0.04216,0.04216 0.21081,-0.04216 0.252972,0 C 49.769438,49.938086 49.578764,49.864179 50,50"
       id="path36446" />
    <path
       style="fill:none;stroke:#000000;stroke-width:1px;stroke-linecap:butt;stroke-linejoin:miter;stroke-opacity:1"
       d="m 49,46 -3,3"
       id="path36561"
       inkscape:path-effect="#path-effect36563"
       inkscape:original-d="m 49,46 c -0.999,1.001 -1.999,2.001 -3,3" />
    <path
       style="fill:none;stroke:#000000;stroke-width:1px;stroke-linecap:butt;stroke-linejoin:miter;stroke-opacity:1"
       d="m 50,51 c -14.850739,2.603655 -29.922857,3.943399 -45,4 -0.6666635,0.0025 -1.3333365,0.0025 -2,0"
       id="path37982"
       inkscape:path-effect="#path-effect37984"
       inkscape:original-d="M 50,51 C 35.001,52.334333 20.001,53.667667 5,55 -10.001,56.332333 3.6676667,55.001 3,55" />
    <path
       style="fill:none;stroke:#000000;stroke-width:1px;stroke-linecap:butt;stroke-linejoin:miter;stroke-opacity:1"
       d="M 3,58 49,51"
       id="path37986"
       inkscape:path-effect="#path-effect37988"
       inkscape:original-d="M 3,58 C 18.334333,55.667667 33.667667,53.334333 49,51" />
    <path
       style="fill:none;stroke:#000000;stroke-width:1px;stroke-linecap:butt;stroke-linejoin:miter;stroke-opacity:1"
       d="m 3,55 v 3"
       id="path37990"
       inkscape:path-effect="#path-effect37992"
       inkscape:original-d="m 3,55 c 10e-4,1.001 10e-4,2.001 0,3" />
    <path
       style="fill:#ffffff;stroke-width:0.0843239"
       d="M 3.5837655,56.464609 V 55.58897 L 6.429697,55.53695 c 2.5887779,-0.04731 7.209139,-0.168813 9.886977,-0.259992 0.579726,-0.01974 0.959184,-0.01575 0.843239,0.0089 -0.264657,0.05617 -13.3950494,2.054432 -13.4994892,2.054432 -0.042162,0 -0.076658,-0.394037 -0.076658,-0.875639 z"
       id="path38031" />
    <path
       style="fill:#ffffff;stroke-width:0.0843239"
       d="m 3.5837655,56.464586 v -0.875663 l 2.7616076,-0.05134 c 2.5561191,-0.04752 7.6300109,-0.180247 10.0134629,-0.261941 0.556537,-0.01908 0.917022,-0.01452 0.801077,0.01012 -0.2641,0.05613 -13.3948096,2.054489 -13.4994892,2.054489 -0.042162,0 -0.076658,-0.394048 -0.076658,-0.875662 z"
       id="path38070" />
    <path
       style="fill:#ffffff;stroke-width:0.0843239"
       d="m 3.5837655,56.464586 v -0.875663 l 2.7616076,-0.05169 c 2.6431947,-0.04947 7.7425699,-0.183692 9.9713009,-0.262456 0.579726,-0.02049 0.99713,-0.02027 0.927562,4.91e-4 -0.140871,0.04203 -13.4393875,2.064976 -13.5748458,2.064976 -0.052453,0 -0.085625,-0.339234 -0.085625,-0.875662 z"
       id="path38109" />
    <path
       style="fill:none;stroke:#000000;stroke-width:1px;stroke-linecap:butt;stroke-linejoin:miter;stroke-opacity:1"
       d="M 21,55 4,57"
       id="path38214"
       inkscape:path-effect="#path-effect38216"
       inkscape:original-d="M 21,55 C 15.334333,55.667667 9.6676667,56.334333 4,57" />
    <path
       style="fill:none;stroke:#000000;stroke-width:1px;stroke-linecap:butt;stroke-linejoin:miter;stroke-opacity:1"
       d="M 3,56 H 13"
       id="path38218"
       inkscape:path-effect="#path-effect38220"
       inkscape:original-d="m 3,56 c 3.3343333,10e-4 6.6676667,10e-4 10,0" />
    <path
       style="fill:none;stroke:#000000;stroke-width:1px;stroke-linecap:butt;stroke-linejoin:miter;stroke-opacity:1"
       d="M 3,58 13,55"
       id="path38222"
       inkscape:path-effect="#path-effect38224"
       inkscape:original-d="M 3,58 C 6.3343333,57.001 9.6676667,56.001 13,55" />
    <path
       style="fill:#d40000;stroke:#000000;stroke-width:1px;stroke-linecap:butt;stroke-linejoin:miter;stroke-opacity:1"
       d="M 3,57 H 5"
       id="path38226"
       inkscape:path-effect="#path-effect38228"
       inkscape:original-d="m 3,57 c 0.6676667,10e-4 1.3343333,10e-4 2,0" />
    <path
       style="fill:#ff0000;stroke-width:0.0843239"
       d="M 3.0623422,58.204568 C 3.041385,58.022431 2.9859065,57.966953 2.8037695,57.945996 l -0.2318907,-0.02668 v -1.427905 -1.427906 h 0.2529717 c 0.2217735,0 0.2529717,-0.02957 0.2529717,-0.23979 v -0.239791 l 3.7313323,-0.05707 c 8.2315555,-0.12589 14.5759725,-0.457904 22.0717795,-1.15505 3.485486,-0.324167 4.816518,-0.501685 12.016155,-1.602583 4.989298,-0.762914 7.521937,-1.115521 8.117511,-1.130163 0.849575,-0.02088 0.866412,-0.01758 0.906481,0.177808 0.02246,0.109499 0.05987,0.291372 0.08316,0.404163 0.03017,0.146156 -8.5e-5,0.218018 -0.105405,0.250128 -0.725683,0.221313 -9.163765,1.471916 -13.723881,2.034009 -1.715991,0.211518 -9.84311,1.407588 -18.060263,2.657934 -8.2171529,1.250347 -14.9594899,2.273357 -14.982971,2.273357 -0.023481,0 -0.0547,-0.104351 -0.069375,-0.231891 z m 0.8376379,-1.681361 c -0.081162,-0.02121 -0.2139718,-0.02121 -0.2951336,0 -0.081162,0.02121 -0.014757,0.03856 0.1475668,0.03856 0.1623235,0 0.2287286,-0.01735 0.1475668,-0.03856 z m 5.8815917,-1.043191 c 0.1038751,-0.04778 -1.0620333,-0.0579 -3.0356602,-0.02634 -1.7623694,0.02818 -3.2201187,0.06576 -3.239443,0.0835 -0.077676,0.07133 6.1184694,0.01488 6.2751032,-0.05717 z m 4.3244752,-0.127079 c 0.337822,-0.03235 0.597715,-0.07533 0.577539,-0.0955 -0.07526,-0.07526 -1.650314,0.08361 -1.602113,0.161599 0.02711,0.04387 0.13053,0.06017 0.22982,0.03624 0.09929,-0.02393 0.45693,-0.06998 0.794754,-0.102335 z"
       id="path38341" />
  </g>
</svg>
