<?xml version="1.0" encoding="UTF-8" standalone="no"?>
<!-- Created with Inkscape (http://www.inkscape.org/) -->

<svg
   width="60.0px"
   height="60.0px"
   viewBox="0 0 60.0 60.0"
   version="1.1"
   id="SVGRoot"
   sodipodi:docname="save.svg"
   inkscape:version="1.1 (c68e22c387, 2021-05-23)"
   xmlns:inkscape="http://www.inkscape.org/namespaces/inkscape"
   xmlns:sodipodi="http://sodipodi.sourceforge.net/DTD/sodipodi-0.dtd"
   xmlns="http://www.w3.org/2000/svg"
   xmlns:svg="http://www.w3.org/2000/svg">
  <sodipodi:namedview
     id="namedview1386"
     pagecolor="#ffffff"
     bordercolor="#666666"
     borderopacity="1.0"
     inkscape:pageshadow="2"
     inkscape:pageopacity="0.0"
     inkscape:pagecheckerboard="0"
     inkscape:document-units="px"
     showgrid="true"
     inkscape:zoom="11.859035"
     inkscape:cx="29.302553"
     inkscape:cy="31.242002"
     inkscape:window-width="1920"
     inkscape:window-height="1017"
     inkscape:window-x="-8"
     inkscape:window-y="1072"
     inkscape:window-maximized="1"
     inkscape:current-layer="layer1">
    <inkscape:grid
       type="xygrid"
       id="grid1392" />
  </sodipodi:namedview>
  <defs
     id="defs1381">
    <inkscape:path-effect
       effect="spiro"
       id="path-effect4817"
       is_visible="true"
       lpeversion="1" />
    <inkscape:path-effect
       effect="spiro"
       id="path-effect4248"
       is_visible="true"
       lpeversion="1" />
    <inkscape:path-effect
       effect="spiro"
       id="path-effect3679"
       is_visible="true"
       lpeversion="1" />
    <inkscape:path-effect
       effect="spiro"
       id="path-effect3675"
       is_visible="true"
       lpeversion="1" />
    <inkscape:path-effect
       effect="spiro"
       id="path-effect3671"
       is_visible="true"
       lpeversion="1" />
    <inkscape:path-effect
       effect="spiro"
       id="path-effect3667"
       is_visible="true"
       lpeversion="1" />
    <inkscape:path-effect
       effect="spiro"
       id="path-effect3663"
       is_visible="true"
       lpeversion="1" />
    <inkscape:path-effect
       effect="spiro"
       id="path-effect3659"
       is_visible="true"
       lpeversion="1" />
    <inkscape:path-effect
       effect="spiro"
       id="path-effect3655"
       is_visible="true"
       lpeversion="1" />
    <inkscape:path-effect
       effect="spiro"
       id="path-effect3651"
       is_visible="true"
       lpeversion="1" />
    <inkscape:path-effect
       effect="spiro"
       id="path-effect3647"
       is_visible="true"
       lpeversion="1" />
    <inkscape:path-effect
       effect="spiro"
       id="path-effect3643"
       is_visible="true"
       lpeversion="1" />
    <inkscape:path-effect
       effect="spiro"
       id="path-effect3366"
       is_visible="true"
       lpeversion="1" />
    <inkscape:path-effect
       effect="spiro"
       id="path-effect3362"
       is_visible="true"
       lpeversion="1" />
    <inkscape:path-effect
       effect="spiro"
       id="path-effect3358"
       is_visible="true"
       lpeversion="1" />
    <inkscape:path-effect
       effect="spiro"
       id="path-effect3354"
       is_visible="true"
       lpeversion="1" />
    <inkscape:path-effect
       effect="spiro"
       id="path-effect3350"
       is_visible="true"
       lpeversion="1" />
    <inkscape:path-effect
       effect="spiro"
       id="path-effect3346"
       is_visible="true"
       lpeversion="1" />
    <inkscape:path-effect
       effect="spiro"
       id="path-effect3342"
       is_visible="true"
       lpeversion="1" />
    <inkscape:path-effect
       effect="spiro"
       id="path-effect3338"
       is_visible="true"
       lpeversion="1" />
    <inkscape:path-effect
       effect="spiro"
       id="path-effect3334"
       is_visible="true"
       lpeversion="1" />
    <inkscape:path-effect
       effect="spiro"
       id="path-effect3322"
       is_visible="true"
       lpeversion="1" />
    <inkscape:path-effect
       effect="spiro"
       id="path-effect3314"
       is_visible="true"
       lpeversion="1" />
    <inkscape:path-effect
       effect="spiro"
       id="path-effect2703"
       is_visible="true"
       lpeversion="1" />
    <inkscape:path-effect
       effect="spiro"
       id="path-effect2699"
       is_visible="true"
       lpeversion="1" />
    <inkscape:path-effect
       effect="spiro"
       id="path-effect2695"
       is_visible="true"
       lpeversion="1" />
    <inkscape:path-effect
       effect="spiro"
       id="path-effect2691"
       is_visible="true"
       lpeversion="1" />
    <inkscape:path-effect
       effect="spiro"
       id="path-effect2687"
       is_visible="true"
       lpeversion="1" />
    <inkscape:path-effect
       effect="spiro"
       id="path-effect2683"
       is_visible="true"
       lpeversion="1" />
    <inkscape:path-effect
       effect="spiro"
       id="path-effect2679"
       is_visible="true"
       lpeversion="1" />
    <inkscape:path-effect
       effect="spiro"
       id="path-effect1536"
       is_visible="true"
       lpeversion="1" />
    <inkscape:path-effect
       effect="spiro"
       id="path-effect1532"
       is_visible="true"
       lpeversion="1" />
    <inkscape:path-effect
       effect="spiro"
       id="path-effect1528"
       is_visible="true"
       lpeversion="1" />
    <inkscape:path-effect
       effect="spiro"
       id="path-effect1524"
       is_visible="true"
       lpeversion="1" />
    <inkscape:path-effect
       effect="spiro"
       id="path-effect1516"
       is_visible="true"
       lpeversion="1" />
    <inkscape:path-effect
       effect="spiro"
       id="path-effect1512"
       is_visible="true"
       lpeversion="1" />
    <inkscape:path-effect
       effect="spiro"
       id="path-effect1496"
       is_visible="true"
       lpeversion="1" />
    <inkscape:path-effect
       effect="spiro"
       id="path-effect1492"
       is_visible="true"
       lpeversion="1" />
    <inkscape:path-effect
       effect="spiro"
       id="path-effect1488"
       is_visible="true"
       lpeversion="1" />
    <inkscape:path-effect
       effect="spiro"
       id="path-effect1484"
       is_visible="true"
       lpeversion="1" />
    <inkscape:path-effect
       effect="spiro"
       id="path-effect1480"
       is_visible="true"
       lpeversion="1" />
    <inkscape:path-effect
       effect="spiro"
       id="path-effect1476"
       is_visible="true"
       lpeversion="1" />
    <inkscape:path-effect
       effect="spiro"
       id="path-effect1472"
       is_visible="true"
       lpeversion="1" />
    <inkscape:path-effect
       effect="spiro"
       id="path-effect1468"
       is_visible="true"
       lpeversion="1" />
    <inkscape:path-effect
       effect="spiro"
       id="path-effect1464"
       is_visible="true"
       lpeversion="1" />
    <inkscape:path-effect
       effect="spiro"
       id="path-effect1460"
       is_visible="true"
       lpeversion="1" />
    <inkscape:path-effect
       effect="spiro"
       id="path-effect1456"
       is_visible="true"
       lpeversion="1" />
    <inkscape:path-effect
       effect="spiro"
       id="path-effect1452"
       is_visible="true"
       lpeversion="1" />
  </defs>
  <g
     inkscape:label="Layer 1"
     inkscape:groupmode="layer"
     id="layer1">
    <path
       style="fill:none;stroke:#000000;stroke-width:1.10841px;stroke-linecap:butt;stroke-linejoin:miter;stroke-opacity:1"
       d="M 10,10 V 53"
       id="path3312"
       inkscape:path-effect="#path-effect3314"
       inkscape:original-d="m 10,10 c 10e-4,14.334562 10e-4,28.667895 0,43" />
    <path
       style="fill:none;stroke:#000000;stroke-width:1.10195px;stroke-linecap:butt;stroke-linejoin:miter;stroke-opacity:1"
       d="M 44,10 H 10"
       id="path3320"
       inkscape:original-d="M 44,10 C 32.667881,10.001 21.334547,10.001 10,10"
       inkscape:path-effect="#path-effect3322" />
    <path
       style="fill:none;stroke:#000000;stroke-width:1.2px;stroke-linecap:butt;stroke-linejoin:miter;stroke-opacity:1"
       d="M 50,53 V 17"
       id="path3340"
       inkscape:path-effect="#path-effect3342"
       inkscape:original-d="M 50,53 C 50.001,41.00144 50.001,29.00144 50,17" />
    <path
       style="fill:none;stroke:#000000;stroke-width:1px;stroke-linecap:butt;stroke-linejoin:miter;stroke-opacity:1"
       d="M 10,53 H 50"
       id="path3344"
       inkscape:path-effect="#path-effect3346"
       inkscape:original-d="m 10,53 c 13.334333,10e-4 26.667667,10e-4 40,0" />
    <path
       style="fill:none;stroke:#000000;stroke-width:1.3784px;stroke-linecap:butt;stroke-linejoin:miter;stroke-opacity:1"
       d="M 17,34 V 53"
       id="path3348"
       inkscape:path-effect="#path-effect3350"
       inkscape:original-d="m 17,34 c 0.001,6.335232 0.001,12.668568 0,19" />
    <path
       style="fill:none;stroke:#000000;stroke-width:1.38665px;stroke-linecap:butt;stroke-linejoin:miter;stroke-opacity:1"
       d="M 43,53.228081 V 34"
       id="path3352"
       inkscape:path-effect="#path-effect3354"
       inkscape:original-d="M 43,53.228081 C 43.001,46.820644 43.001,40.411282 43,34" />
    <path
       style="fill:none;stroke:#000000;stroke-width:1.14017px;stroke-linecap:butt;stroke-linejoin:miter;stroke-opacity:1"
       d="M 17,34 H 43"
       id="path3356"
       inkscape:path-effect="#path-effect3358"
       inkscape:original-d="m 17,34 c 8.667967,10e-4 17.334633,10e-4 26,0" />
    <path
       style="fill:none;stroke:#000000;stroke-width:1.41421px;stroke-linecap:butt;stroke-linejoin:miter;stroke-opacity:1"
       d="M 20,43 H 40"
       id="path3360"
       inkscape:path-effect="#path-effect3362"
       inkscape:original-d="m 20,43 c 6.668667,10e-4 13.335335,10e-4 20,0" />
    <path
       style="fill:none;stroke:#000000;stroke-width:1.41421px;stroke-linecap:butt;stroke-linejoin:miter;stroke-opacity:1"
       d="M 20,38 H 40"
       id="path3360-6"
       inkscape:path-effect="#path-effect4817"
       inkscape:original-d="m 20,38 c 6.668667,10e-4 13.335335,10e-4 20,0" />
    <path
       style="fill:none;stroke:#000000;stroke-width:1.41421px;stroke-linecap:butt;stroke-linejoin:miter;stroke-opacity:1"
       d="M 20,48 H 40"
       id="path3360-0"
       inkscape:path-effect="#path-effect4248"
       inkscape:original-d="m 20,48 c 6.668667,10e-4 13.335335,10e-4 20,0" />
    <path
       style="fill:none;stroke:#000000;stroke-width:1px;stroke-linecap:butt;stroke-linejoin:miter;stroke-opacity:1"
       d="m 44,10 6,7"
       id="path3641"
       inkscape:path-effect="#path-effect3643"
       inkscape:original-d="m 44,10 c 2.001,2.334333 4.001,4.667667 6,7" />
    <path
       style="fill:none;stroke:#000000;stroke-width:1px;stroke-linecap:butt;stroke-linejoin:miter;stroke-opacity:1"
       d="M 18,10 V 20"
       id="path3645"
       inkscape:path-effect="#path-effect3647"
       inkscape:original-d="m 18,10 c 0.001,3.334333 0.001,6.667667 0,10" />
    <path
       style="fill:none;stroke:#000000;stroke-width:1.28173px;stroke-linecap:butt;stroke-linejoin:miter;stroke-opacity:1"
       d="M 41,20 H 18"
       id="path3649"
       inkscape:path-effect="#path-effect3651"
       inkscape:original-d="m 41,20 c -7.665025,0.001 -15.33169,0.001 -23,0" />
    <path
       style="fill:none;stroke:#000000;stroke-width:1px;stroke-linecap:butt;stroke-linejoin:miter;stroke-opacity:1"
       d="M 41,10 V 20"
       id="path3653"
       inkscape:path-effect="#path-effect3655"
       inkscape:original-d="m 41,10 c 10e-4,3.334333 10e-4,6.667667 0,10" />
    <path
       style="fill:none;stroke:#000000;stroke-width:0.819096px;stroke-linecap:butt;stroke-linejoin:miter;stroke-opacity:1"
       d="m 36.838639,11 v 8"
       id="path3657"
       inkscape:path-effect="#path-effect3659"
       inkscape:original-d="m 36.838639,11 c 4.19e-4,2.668268 4.19e-4,5.334932 0,8" />
    <path
       style="fill:none;stroke:#000000;stroke-width:0.819096px;stroke-linecap:butt;stroke-linejoin:miter;stroke-opacity:1"
       d="m 35.580681,18.269193 h 1.257958"
       id="path3661"
       inkscape:path-effect="#path-effect3663"
       inkscape:original-d="m 35.580681,18.269193 c 0.419738,0.0016 0.839058,0.0016 1.257958,0" />
    <path
       style="fill:none;stroke:#000000;stroke-width:0.819096px;stroke-linecap:butt;stroke-linejoin:miter;stroke-opacity:1"
       d="m 35.580681,11 v 8"
       id="path3665"
       inkscape:path-effect="#path-effect3667"
       inkscape:original-d="m 35.580681,11 c 4.19e-4,2.668268 4.19e-4,5.334932 0,8" />
    <path
       style="fill:none;stroke:#000000;stroke-width:0.819096px;stroke-linecap:butt;stroke-linejoin:miter;stroke-opacity:1"
       d="M 36.838639,11.330807 H 35.580681"
       id="path3669"
       inkscape:path-effect="#path-effect3671"
       inkscape:original-d="m 36.838639,11.330807 c -0.4189,0.0016 -0.83822,0.0016 -1.257958,0" />
    <path
       style="fill:none;stroke:#000000;stroke-width:0.819096px;stroke-linecap:butt;stroke-linejoin:miter;stroke-opacity:1"
       d="M 36,17 V 12.2"
       id="path3673"
       inkscape:path-effect="#path-effect3675"
       inkscape:original-d="m 36,17 c 4.19e-4,-1.5984 4.19e-4,-3.1984 0,-4.8" />
    <path
       style="fill:none;stroke:#000000;stroke-width:1.29509px;stroke-linecap:butt;stroke-linejoin:miter;stroke-opacity:1"
       d="M 36.41932,19 V 11"
       id="path3677"
       inkscape:path-effect="#path-effect3679"
       inkscape:original-d="m 36.41932,19 c 8.38e-4,-2.64174 8.38e-4,-5.308404 0,-8" />
    <path
       style="fill:none;stroke:#000000;stroke-width:0.66879px;stroke-linecap:butt;stroke-linejoin:miter;stroke-opacity:1"
       d="m 36,11.933332 c -0.1554,0.774664 -0.08652,1.590152 -0.118386,2.400792 -0.005,0.127267 -0.126214,1.657737 -0.07072,1.798912 0.01864,0.0474 0.05208,0.04253 0.07072,0.08993 0.01667,0.0424 -0.01667,0.13748 0,0.1799 0.0083,0.02123 0.02702,-0.02121 0.03536,0 0.04714,0.119947 -0.04714,0.599636 0,0.719564 0.0083,0.02121 0.02358,0 0.03535,0 0.01589,0.04811 0.03178,0.09616 0.04767,0.14422"
       id="path4069" />
    <path
       style="opacity:0;fill:#b3b3b3;stroke-width:0.0843239"
       d="M 10.582649,30.061468 V 10.624811 h 3.457279 3.45728 v 4.722138 4.722138 h 0.21081 c 0.184709,0 0.210809,0.03654 0.210809,0.295133 v 0.295134 h 11.04643 11.04643 V 20.36422 c 0,-0.27171 0.02008,-0.295133 0.252972,-0.295133 h 0.252972 v -4.722138 -4.722138 h 1.642622 1.642623 l 2.784382,3.244497 2.784381,3.244497 v 16.19216 16.19216 h -1.855125 -1.855126 v -7.37834 -7.378341 h -0.295133 c -0.258594,0 -0.295134,-0.0261 -0.295134,-0.21081 V 34.319825 H 29.934982 14.798843 v 0.337295 c 0,0.303566 -0.02108,0.337296 -0.210809,0.337296 h -0.21081 v 7.251854 7.251855 h -1.897288 -1.897287 z"
       id="path4361" />
    <path
       style="opacity:0;fill:#b3b3b3;stroke-width:0.0843239"
       d="M 10.582649,30.061468 V 10.624811 h 3.457279 3.45728 v 4.722138 4.722138 h 0.21081 c 0.184709,0 0.210809,0.03654 0.210809,0.295133 v 0.295134 h 11.04643 11.04643 V 20.36422 c 0,-0.27171 0.02008,-0.295133 0.252972,-0.295133 h 0.252972 v -4.722138 -4.722138 h 1.642622 1.642623 l 2.784382,3.244497 2.784381,3.244497 v 16.19216 16.19216 h -1.855125 -1.855126 v -7.37834 -7.378341 h -0.295133 c -0.258594,0 -0.295134,-0.0261 -0.295134,-0.21081 V 34.319825 H 29.934982 14.798843 v 0.337295 c 0,0.303566 -0.02108,0.337296 -0.210809,0.337296 h -0.21081 v 7.251854 7.251855 h -1.897288 -1.897287 z"
       id="path4400" />
    <path
       style="opacity:0;fill:#b3b3b3;stroke-width:0.0843239"
       d="M 10.582649,30.061468 V 10.624811 h 3.457279 3.45728 v 4.722138 4.722138 h 0.21081 c 0.184709,0 0.210809,0.03654 0.210809,0.295133 v 0.295134 h 11.04643 11.04643 V 20.36422 c 0,-0.27171 0.02008,-0.295133 0.252972,-0.295133 h 0.252972 v -4.722138 -4.722138 h 1.642622 1.642623 l 2.784382,3.244497 2.784381,3.244497 v 16.19216 16.19216 h -1.855125 -1.855126 v -7.37834 -7.378341 h -0.295133 c -0.258594,0 -0.295134,-0.0261 -0.295134,-0.21081 V 34.319825 H 29.934982 14.798843 v 0.337295 c 0,0.303566 -0.02108,0.337296 -0.210809,0.337296 h -0.21081 v 7.251854 7.251855 h -1.897288 -1.897287 z"
       id="path4476" />
    <path
       style="opacity:0;fill:#b3b3b3;stroke-width:0.0843239"
       d="M 10.582649,30.061468 V 10.624811 h 3.457279 3.45728 v 4.722138 4.722138 h 0.21081 c 0.184709,0 0.210809,0.03654 0.210809,0.295133 v 0.295134 h 11.04643 11.04643 V 20.36422 c 0,-0.27171 0.02008,-0.295133 0.252972,-0.295133 h 0.252972 v -4.722138 -4.722138 h 1.642622 1.642623 l 2.784382,3.244497 2.784381,3.244497 v 16.19216 16.19216 h -1.855125 -1.855126 v -7.37834 -7.378341 h -0.295133 c -0.258594,0 -0.295134,-0.0261 -0.295134,-0.21081 V 34.319825 H 29.934982 14.798843 v 0.337295 c 0,0.303566 -0.02108,0.337296 -0.210809,0.337296 h -0.21081 v 7.251854 7.251855 h -1.897288 -1.897287 z"
       id="path4515" />
    <path
       style="opacity:0;fill:#b3b3b3;stroke-width:0.0843239"
       d="M 10.582649,30.061468 V 10.624811 h 3.457279 3.45728 v 4.722138 4.722138 h 0.21081 c 0.184709,0 0.210809,0.03654 0.210809,0.295133 v 0.295134 h 11.04643 11.04643 V 20.36422 c 0,-0.27171 0.02008,-0.295133 0.252972,-0.295133 h 0.252972 v -4.722138 -4.722138 h 1.642622 1.642623 l 2.784382,3.244497 2.784381,3.244497 v 16.19216 16.19216 h -1.855125 -1.855126 v -7.37834 -7.378341 h -0.295133 c -0.258594,0 -0.295134,-0.0261 -0.295134,-0.21081 V 34.319825 H 29.934982 14.798843 v 0.337295 c 0,0.303566 -0.02108,0.337296 -0.210809,0.337296 h -0.21081 v 7.251854 7.251855 h -1.897288 -1.897287 z"
       id="path4554" />
    <path
       style="opacity:0;fill:#b3b3b3;stroke-width:0.0843239"
       d="M 10.582649,30.061468 V 10.624811 h 3.457279 3.45728 v 4.722138 4.722138 h 0.21081 c 0.184709,0 0.210809,0.03654 0.210809,0.295133 v 0.295134 h 11.04643 11.04643 V 20.36422 c 0,-0.27171 0.02008,-0.295133 0.252972,-0.295133 h 0.252972 v -4.722138 -4.722138 h 1.642622 1.642623 l 2.784382,3.244497 2.784381,3.244497 v 16.19216 16.19216 h -1.855125 -1.855126 v -7.37834 -7.378341 h -0.295133 c -0.258594,0 -0.295134,-0.0261 -0.295134,-0.21081 V 34.319825 H 29.934982 14.798843 v 0.337295 c 0,0.303566 -0.02108,0.337296 -0.210809,0.337296 h -0.21081 v 7.251854 7.251855 h -1.897288 -1.897287 z"
       id="path4593" />
  </g>
</svg>
