<?xml version="1.0" encoding="UTF-8" standalone="no"?>
<!-- Created with Inkscape (http://www.inkscape.org/) -->

<svg
   width="120.0px"
   height="120.0px"
   viewBox="0 0 120.0 120.0"
   version="1.1"
   id="SVGRoot"
   sodipodi:docname="site-logo.svg"
   inkscape:version="1.1 (c68e22c387, 2021-05-23)"
   xmlns:inkscape="http://www.inkscape.org/namespaces/inkscape"
   xmlns:sodipodi="http://sodipodi.sourceforge.net/DTD/sodipodi-0.dtd"
   xmlns="http://www.w3.org/2000/svg"
   xmlns:svg="http://www.w3.org/2000/svg">
  <sodipodi:namedview
     id="namedview26351"
     pagecolor="#ffffff"
     bordercolor="#666666"
     borderopacity="1.0"
     inkscape:pageshadow="2"
     inkscape:pageopacity="0.0"
     inkscape:pagecheckerboard="0"
     inkscape:document-units="px"
     showgrid="true"
     inkscape:zoom="5.9295174"
     inkscape:cx="90.985482"
     inkscape:cy="60.797528"
     inkscape:window-width="1920"
     inkscape:window-height="1017"
     inkscape:window-x="-8"
     inkscape:window-y="1072"
     inkscape:window-maximized="1"
     inkscape:current-layer="layer1">
    <inkscape:grid
       type="xygrid"
       id="grid26357" />
  </sodipodi:namedview>
  <defs
     id="defs26346" />
  <g
     inkscape:label="Layer 1"
     inkscape:groupmode="layer"
     id="layer1">
    <text
       xml:space="preserve"
       style="font-style:normal;font-variant:normal;font-weight:normal;font-stretch:normal;font-size:128px;line-height:1.25;font-family:Vivaldi;-inkscape-font-specification:Vivaldi;stroke-width:1.28684"
       x="11.477746"
       y="100.47849"
       id="text29376"
       transform="scale(1.0225003,0.97799482)"><tspan
         sodipodi:role="line"
         id="tspan29374"
         x="11.477746"
         y="100.47849"
         style="font-size:128px;fill:#666666;stroke-width:1.28684">A</tspan></text>
    <text
       xml:space="preserve"
       style="font-size:13.3333px;line-height:1.25;font-family:sans-serif"
       x="10"
       y="100"
       id="text36056"><tspan
         sodipodi:role="line"
         id="tspan36054"
         x="10"
         y="100" /></text>
    <text
       xml:space="preserve"
       style="font-size:27.5976px;line-height:1.25;font-family:sans-serif;stroke-width:1.29364;fill:#b3b3b3"
       x="0.33818099"
       y="125.42921"
       id="text50112"
       transform="scale(1.0927274,0.91514133)"><tspan
         sodipodi:role="line"
         id="tspan50110"
         x="0.33818099"
         y="125.42921"
         style="stroke-width:1.29364;fill:#b3b3b3">nimator</tspan></text>
    <path
       style="opacity:0;fill:#808080;stroke-width:0.168648"
       d="m 3.1199841,107.85026 v -6.83023 h 1.3491823 1.3491823 v 1.12248 1.12249 l 0.7167531,-0.72198 c 2.1793524,-2.19523 6.4062592,-2.44491 8.6062942,-0.50836 0.432624,0.38081 0.918969,1.03568 1.151776,1.55089 0.39195,0.86739 0.40436,1.03113 0.454238,5.99335 l 0.05128,5.1016 h -1.273975 -1.273976 l -9.4e-4,-4.59566 c -5.8e-4,-2.83255 -0.07239,-4.85299 -0.187167,-5.26644 -0.238667,-0.85968 -1.232759,-1.85377 -2.09244,-2.09244 -1.664447,-0.46208 -3.7125665,-0.0559 -4.8390688,0.95979 -1.2576943,1.13392 -1.3048695,1.36757 -1.3090696,6.48342 l -0.0037,4.51133 H 4.4691664 3.1199841 Z"
       id="path87" />
    <path
       style="opacity:0;fill:#808080;stroke-width:0.168648"
       d="m 3.1199841,107.85026 v -6.83023 h 1.3491823 1.3491823 v 1.12248 1.12249 l 0.7167531,-0.72198 c 2.1793524,-2.19523 6.4062592,-2.44491 8.6062942,-0.50836 0.432624,0.38081 0.918969,1.03568 1.151776,1.55089 0.39195,0.86739 0.40436,1.03113 0.454238,5.99335 l 0.05128,5.1016 h -1.273975 -1.273976 l -9.4e-4,-4.59566 c -5.8e-4,-2.83255 -0.07239,-4.85299 -0.187167,-5.26644 -0.238667,-0.85968 -1.232759,-1.85377 -2.09244,-2.09244 -1.664447,-0.46208 -3.7125665,-0.0559 -4.8390688,0.95979 -1.2576943,1.13392 -1.3048695,1.36757 -1.3090696,6.48342 l -0.0037,4.51133 H 4.4691664 3.1199841 Z"
       id="path126" />
    <path
       style="opacity:0;fill:#808080;stroke-width:0.168648"
       d="M 104.94836,96.188413 C 96.537926,78.781874 89.705515,56.641016 87.860071,40.812765 87.27372,35.783661 87.359386,29.441388 88.103244,22.809613 c 0.158662,-1.414533 0.233962,-2.571878 0.167334,-2.571878 -0.374098,0 -7.380283,7.885331 -14.385125,16.190187 -5.646316,6.694206 -9.97711,11.678116 -12.702163,14.617745 -1.046976,1.129417 -1.90356,2.078061 -1.903521,2.108097 3.8e-5,0.03004 4.117153,0.06128 9.149142,0.06943 5.03199,0.0081 11.546596,0.07353 14.476904,0.145285 l 5.327831,0.130469 -0.745595,2.131461 c -0.815613,2.331626 -2.638136,8.591427 -3.259763,11.196278 l -0.392401,1.644316 H 82.71174 81.587593 l 0.32321,-1.30702 c 0.177766,-0.718861 0.367564,-2.077193 0.421773,-3.018514 0.08837,-1.534654 0.06044,-1.790235 -0.270363,-2.473586 -0.43332,-0.89512 -0.799321,-1.165045 -2.141732,-1.579538 C 78.996633,59.80709 78.018675,59.785641 65.936626,59.785641 H 52.946085 l -4.630408,4.289852 c -9.831398,9.108323 -14.976347,13.619548 -18.633666,16.338486 -2.117223,1.573995 -6.446587,4.503011 -11.360852,7.686149 -0.961361,0.622705 -1.717088,1.163032 -1.679394,1.200726 0.03769,0.03769 1.279611,-0.01255 2.759816,-0.111651 3.23414,-0.216532 18.321906,-0.08318 21.664156,0.191479 1.252209,0.102904 5.776188,0.560661 10.053287,1.017238 12.459631,1.330056 15.754712,1.44261 20.134667,0.687764 9.242135,-1.592799 15.240908,-7.507199 17.185938,-16.944215 0.225263,-1.092949 0.383434,-1.52466 0.546083,-1.490481 0.445185,0.09355 1.634169,1.508907 1.815151,2.160745 0.238909,0.860461 0.22867,1.262866 -0.06824,2.681926 -0.571387,2.730878 -2.714332,5.917138 -6.360474,9.457131 -5.348128,5.192434 -11.346906,8.722623 -17.418974,10.2508 -2.92716,0.736689 -5.108097,0.9808 -8.699755,0.973757 -3.582138,-0.007 -4.681374,-0.08177 -14.069585,-0.956747 -6.151531,-0.573318 -13.200277,-1.124901 -17.242348,-1.349258 l -2.065935,-0.114671 v 1.283496 1.283494 H 23.61069 22.345832 v -1.375965 -1.375965 l -9.969241,0.119628 -9.9692407,0.119629 0.3929532,-0.640951 c 0.2161243,-0.352523 1.0902956,-1.703432 1.9426027,-3.00202 L 6.2925558,89.804948 7.6997683,89.318461 C 9.7064537,88.62473 14.550464,86.538183 16.969714,85.32545 22.701503,82.452191 28.186029,78.973488 33.501747,74.83958 43.432245,67.116867 56.583362,53.329711 76.736945,29.513363 85.520923,19.132963 90.978832,13.011504 94.807405,9.2459729 l 1.65913,-1.6318094 0.814638,0.7253043 0.814638,0.7253042 -1.109903,1.374756 c -2.706205,3.351983 -3.26462,5.837217 -3.073154,13.677106 0.133013,5.446413 0.483567,9.271726 1.39095,15.178301 2.357821,15.348163 9.514176,38.998106 13.994036,46.246777 0.71088,1.150229 1.92474,2.308363 2.54053,2.423887 0.80434,0.150894 2.09231,-0.513487 3.69744,-1.907277 l 1.36116,-1.181936 0.71115,0.663358 0.71116,0.663357 -2.24239,2.306868 c -3.14227,3.23262 -7.93636,8.50523 -9.35838,10.292485 l -0.31545,0.396469 z"
       id="path165" />
    <path
       style="opacity:0;fill:#808080;stroke-width:0.168648"
       d="M 104.94836,96.188413 C 96.537926,78.781874 89.705515,56.641016 87.860071,40.812765 87.27372,35.783661 87.359386,29.441388 88.103244,22.809613 c 0.158662,-1.414533 0.233962,-2.571878 0.167334,-2.571878 -0.374098,0 -7.380283,7.885331 -14.385125,16.190187 -5.646316,6.694206 -9.97711,11.678116 -12.702163,14.617745 -1.046976,1.129417 -1.90356,2.078061 -1.903521,2.108097 3.8e-5,0.03004 4.117153,0.06128 9.149142,0.06943 5.03199,0.0081 11.546596,0.07353 14.476904,0.145285 l 5.327831,0.130469 -0.745595,2.131461 c -0.815613,2.331626 -2.638136,8.591427 -3.259763,11.196278 l -0.392401,1.644316 H 82.71174 81.587593 l 0.32321,-1.30702 c 0.177766,-0.718861 0.367564,-2.077193 0.421773,-3.018514 0.08837,-1.534654 0.06044,-1.790235 -0.270363,-2.473586 -0.43332,-0.89512 -0.799321,-1.165045 -2.141732,-1.579538 C 78.996633,59.80709 78.018675,59.785641 65.936626,59.785641 H 52.946085 l -4.630408,4.289852 c -9.831398,9.108323 -14.976347,13.619548 -18.633666,16.338486 -2.117223,1.573995 -6.446587,4.503011 -11.360852,7.686149 -0.961361,0.622705 -1.717088,1.163032 -1.679394,1.200726 0.03769,0.03769 1.279611,-0.01255 2.759816,-0.111651 3.23414,-0.216532 18.321906,-0.08318 21.664156,0.191479 1.252209,0.102904 5.776188,0.560661 10.053287,1.017238 12.459631,1.330056 15.754712,1.44261 20.134667,0.687764 9.242135,-1.592799 15.240908,-7.507199 17.185938,-16.944215 0.225263,-1.092949 0.383434,-1.52466 0.546083,-1.490481 0.445185,0.09355 1.634169,1.508907 1.815151,2.160745 0.238909,0.860461 0.22867,1.262866 -0.06824,2.681926 -0.571387,2.730878 -2.714332,5.917138 -6.360474,9.457131 -5.348128,5.192434 -11.346906,8.722623 -17.418974,10.2508 -2.92716,0.736689 -5.108097,0.9808 -8.699755,0.973757 -3.582138,-0.007 -4.681374,-0.08177 -14.069585,-0.956747 -6.151531,-0.573318 -13.200277,-1.124901 -17.242348,-1.349258 l -2.065935,-0.114671 v 1.283496 1.283494 H 23.61069 22.345832 v -1.375965 -1.375965 l -9.969241,0.119628 -9.9692407,0.119629 0.3929532,-0.640951 c 0.2161243,-0.352523 1.0902956,-1.703432 1.9426027,-3.00202 L 6.2925558,89.804948 7.6997683,89.318461 C 9.7064537,88.62473 14.550464,86.538183 16.969714,85.32545 22.701503,82.452191 28.186029,78.973488 33.501747,74.83958 43.432245,67.116867 56.583362,53.329711 76.736945,29.513363 85.520923,19.132963 90.978832,13.011504 94.807405,9.2459729 l 1.65913,-1.6318094 0.814638,0.7253043 0.814638,0.7253042 -1.109903,1.374756 c -2.706205,3.351983 -3.26462,5.837217 -3.073154,13.677106 0.133013,5.446413 0.483567,9.271726 1.39095,15.178301 2.357821,15.348163 9.514176,38.998106 13.994036,46.246777 0.71088,1.150229 1.92474,2.308363 2.54053,2.423887 0.80434,0.150894 2.09231,-0.513487 3.69744,-1.907277 l 1.36116,-1.181936 0.71115,0.663358 0.71116,0.663357 -2.24239,2.306868 c -3.14227,3.23262 -7.93636,8.50523 -9.35838,10.292485 l -0.31545,0.396469 z"
       id="path204" />
    <path
       style="opacity:0;fill:#808080;stroke-width:0.168648"
       d="M 104.94836,96.188413 C 96.537926,78.781874 89.705515,56.641016 87.860071,40.812765 87.27372,35.783661 87.359386,29.441388 88.103244,22.809613 c 0.158662,-1.414533 0.233962,-2.571878 0.167334,-2.571878 -0.374098,0 -7.380283,7.885331 -14.385125,16.190187 -5.646316,6.694206 -9.97711,11.678116 -12.702163,14.617745 -1.046976,1.129417 -1.90356,2.078061 -1.903521,2.108097 3.8e-5,0.03004 4.117153,0.06128 9.149142,0.06943 5.03199,0.0081 11.546596,0.07353 14.476904,0.145285 l 5.327831,0.130469 -0.745595,2.131461 c -0.815613,2.331626 -2.638136,8.591427 -3.259763,11.196278 l -0.392401,1.644316 H 82.71174 81.587593 l 0.32321,-1.30702 c 0.177766,-0.718861 0.367564,-2.077193 0.421773,-3.018514 0.08837,-1.534654 0.06044,-1.790235 -0.270363,-2.473586 -0.43332,-0.89512 -0.799321,-1.165045 -2.141732,-1.579538 C 78.996633,59.80709 78.018675,59.785641 65.936626,59.785641 H 52.946085 l -4.630408,4.289852 c -9.831398,9.108323 -14.976347,13.619548 -18.633666,16.338486 -2.117223,1.573995 -6.446587,4.503011 -11.360852,7.686149 -0.961361,0.622705 -1.717088,1.163032 -1.679394,1.200726 0.03769,0.03769 1.279611,-0.01255 2.759816,-0.111651 3.23414,-0.216532 18.321906,-0.08318 21.664156,0.191479 1.252209,0.102904 5.776188,0.560661 10.053287,1.017238 12.459631,1.330056 15.754712,1.44261 20.134667,0.687764 9.242135,-1.592799 15.240908,-7.507199 17.185938,-16.944215 0.225263,-1.092949 0.383434,-1.52466 0.546083,-1.490481 0.445185,0.09355 1.634169,1.508907 1.815151,2.160745 0.238909,0.860461 0.22867,1.262866 -0.06824,2.681926 -0.571387,2.730878 -2.714332,5.917138 -6.360474,9.457131 -5.348128,5.192434 -11.346906,8.722623 -17.418974,10.2508 -2.92716,0.736689 -5.108097,0.9808 -8.699755,0.973757 -3.582138,-0.007 -4.681374,-0.08177 -14.069585,-0.956747 -6.151531,-0.573318 -13.200277,-1.124901 -17.242348,-1.349258 l -2.065935,-0.114671 v 1.283496 1.283494 H 23.61069 22.345832 v -1.375965 -1.375965 l -9.969241,0.119628 -9.9692407,0.119629 0.3929532,-0.640951 c 0.2161243,-0.352523 1.0902956,-1.703432 1.9426027,-3.00202 L 6.2925558,89.804948 7.6997683,89.318461 C 9.7064537,88.62473 14.550464,86.538183 16.969714,85.32545 22.701503,82.452191 28.186029,78.973488 33.501747,74.83958 43.432245,67.116867 56.583362,53.329711 76.736945,29.513363 85.520923,19.132963 90.978832,13.011504 94.807405,9.2459729 l 1.65913,-1.6318094 0.814638,0.7253043 0.814638,0.7253042 -1.109903,1.374756 c -2.706205,3.351983 -3.26462,5.837217 -3.073154,13.677106 0.133013,5.446413 0.483567,9.271726 1.39095,15.178301 2.357821,15.348163 9.514176,38.998106 13.994036,46.246777 0.71088,1.150229 1.92474,2.308363 2.54053,2.423887 0.80434,0.150894 2.09231,-0.513487 3.69744,-1.907277 l 1.36116,-1.181936 0.71115,0.663358 0.71116,0.663357 -2.24239,2.306868 c -3.14227,3.23262 -7.93636,8.50523 -9.35838,10.292485 l -0.31545,0.396469 z"
       id="path243" />
    <path
       style="opacity:0;fill:#808080;stroke-width:0.168648"
       d="M 104.94836,96.188413 C 96.537926,78.781874 89.705515,56.641016 87.860071,40.812765 87.27372,35.783661 87.359386,29.441388 88.103244,22.809613 c 0.158662,-1.414533 0.233962,-2.571878 0.167334,-2.571878 -0.374098,0 -7.380283,7.885331 -14.385125,16.190187 -5.646316,6.694206 -9.97711,11.678116 -12.702163,14.617745 -1.046976,1.129417 -1.90356,2.078061 -1.903521,2.108097 3.8e-5,0.03004 4.117153,0.06128 9.149142,0.06943 5.03199,0.0081 11.546596,0.07353 14.476904,0.145285 l 5.327831,0.130469 -0.745595,2.131461 c -0.815613,2.331626 -2.638136,8.591427 -3.259763,11.196278 l -0.392401,1.644316 H 82.71174 81.587593 l 0.32321,-1.30702 c 0.177766,-0.718861 0.367564,-2.077193 0.421773,-3.018514 0.08837,-1.534654 0.06044,-1.790235 -0.270363,-2.473586 -0.43332,-0.89512 -0.799321,-1.165045 -2.141732,-1.579538 C 78.996633,59.80709 78.018675,59.785641 65.936626,59.785641 H 52.946085 l -4.630408,4.289852 c -9.831398,9.108323 -14.976347,13.619548 -18.633666,16.338486 -2.117223,1.573995 -6.446587,4.503011 -11.360852,7.686149 -0.961361,0.622705 -1.717088,1.163032 -1.679394,1.200726 0.03769,0.03769 1.279611,-0.01255 2.759816,-0.111651 3.23414,-0.216532 18.321906,-0.08318 21.664156,0.191479 1.252209,0.102904 5.776188,0.560661 10.053287,1.017238 12.459631,1.330056 15.754712,1.44261 20.134667,0.687764 9.242135,-1.592799 15.240908,-7.507199 17.185938,-16.944215 0.225263,-1.092949 0.383434,-1.52466 0.546083,-1.490481 0.445185,0.09355 1.634169,1.508907 1.815151,2.160745 0.238909,0.860461 0.22867,1.262866 -0.06824,2.681926 -0.571387,2.730878 -2.714332,5.917138 -6.360474,9.457131 -5.348128,5.192434 -11.346906,8.722623 -17.418974,10.2508 -2.92716,0.736689 -5.108097,0.9808 -8.699755,0.973757 -3.582138,-0.007 -4.681374,-0.08177 -14.069585,-0.956747 -6.151531,-0.573318 -13.200277,-1.124901 -17.242348,-1.349258 l -2.065935,-0.114671 v 1.283496 1.283494 H 23.61069 22.345832 v -1.375965 -1.375965 l -9.969241,0.119628 -9.9692407,0.119629 0.3929532,-0.640951 c 0.2161243,-0.352523 1.0902956,-1.703432 1.9426027,-3.00202 L 6.2925558,89.804948 7.6997683,89.318461 C 9.7064537,88.62473 14.550464,86.538183 16.969714,85.32545 22.701503,82.452191 28.186029,78.973488 33.501747,74.83958 43.432245,67.116867 56.583362,53.329711 76.736945,29.513363 85.520923,19.132963 90.978832,13.011504 94.807405,9.2459729 l 1.65913,-1.6318094 0.814638,0.7253043 0.814638,0.7253042 -1.109903,1.374756 c -2.706205,3.351983 -3.26462,5.837217 -3.073154,13.677106 0.133013,5.446413 0.483567,9.271726 1.39095,15.178301 2.357821,15.348163 9.514176,38.998106 13.994036,46.246777 0.71088,1.150229 1.92474,2.308363 2.54053,2.423887 0.80434,0.150894 2.09231,-0.513487 3.69744,-1.907277 l 1.36116,-1.181936 0.71115,0.663358 0.71116,0.663357 -2.24239,2.306868 c -3.14227,3.23262 -7.93636,8.50523 -9.35838,10.292485 l -0.31545,0.396469 z"
       id="path399" />
  </g>
</svg>
